<svg width="389" height="235" viewBox="0 0 389 235" fill="none" xmlns="http://www.w3.org/2000/svg">
<path d="M388.696 234.226H0V234.985H388.696V234.226Z" fill="#3F3D56"/>
<g clip-path="url(#clip0)">
<path opacity="0.1" d="M330.398 127.562C319.464 142.518 323.072 163.865 329.392 180.871C331.509 186.564 333.914 192.586 332.816 198.78C331.476 206.352 325.175 212.026 318.626 215.116C306.687 220.748 292.584 219.849 281.905 212.753C272.689 206.628 266.201 196.45 256.807 190.618C241.084 180.86 220.672 185.22 203.173 192.669C190.792 197.939 177.231 204.727 165.166 199.86C156.677 196.436 150.96 187.72 147.952 178.402C146.5 173.903 145.483 169.02 142.59 165.499C140.87 163.405 138.597 161.946 136.259 160.727C114.925 149.591 87.4842 156.551 66.8013 144.127C52.8377 135.736 44.1468 119.453 40.5358 102.335C36.9248 85.2166 37.8185 67.1463 39.2567 49.385C40.2789 36.7629 41.8958 23.2749 49.5088 13.3558C57.5602 2.86889 71.0546 -1.2986 83.1219 0.343899C95.1893 1.9864 106.008 8.66775 115.473 16.6436C127.311 26.5933 138.203 39.0846 152.926 42.8624C162.955 45.4347 173.609 43.614 184.034 42.8095C201.461 41.4676 218.826 43.0127 236.085 44.7582C252.606 46.4286 269.243 48.2938 284.89 53.7697C295.963 57.6449 304.741 64.9693 315.166 69.9748C321.961 73.2375 329.437 73.9947 335.832 78.2095C343.724 83.4015 350.857 92.5995 348.542 103.638C346.355 114.13 336.206 119.626 330.398 127.562Z" fill="#0E2A25"/>
<g opacity="0.5">
<path opacity="0.5" d="M276.775 195.775C276.775 195.775 277.696 168.559 292.467 153.181C298.667 146.728 302.739 138.532 303.817 129.663C304.32 125.453 304.436 121.207 304.163 116.977" stroke="#535461" stroke-width="2" stroke-miterlimit="10"/>
<path opacity="0.5" d="M313.415 107.236C312.404 110.276 303.953 117.258 303.953 117.258C303.953 117.258 301.365 106.62 302.376 103.583C302.616 102.86 302.997 102.192 303.496 101.616C303.996 101.04 304.604 100.568 305.287 100.227C305.969 99.8853 306.713 99.6812 307.474 99.6261C308.236 99.5709 309.001 99.6659 309.726 99.9055C310.451 100.145 311.121 100.525 311.699 101.023C312.277 101.521 312.75 102.127 313.093 102.808C313.435 103.488 313.64 104.229 313.696 104.988C313.751 105.747 313.656 106.51 313.415 107.233V107.236Z" fill="#445743"/>
<path opacity="0.5" d="M316.937 127.085C314.423 129.089 303.532 130.375 303.532 130.375C303.532 130.375 307.162 120.044 309.676 118.043C310.267 117.53 310.956 117.141 311.702 116.901C312.447 116.66 313.234 116.572 314.014 116.642C314.795 116.712 315.553 116.939 316.244 117.308C316.934 117.678 317.543 118.183 318.032 118.793C318.522 119.402 318.883 120.105 319.094 120.857C319.304 121.61 319.36 122.397 319.258 123.172C319.155 123.946 318.897 124.692 318.498 125.365C318.099 126.037 317.568 126.622 316.937 127.085Z" fill="#445743"/>
<path opacity="0.5" d="M306.972 155.715C303.794 156.182 293.732 151.817 293.732 151.817C293.732 151.817 302.093 144.724 305.271 144.256C306.027 144.145 306.797 144.183 307.538 144.368C308.279 144.554 308.975 144.883 309.589 145.336C310.202 145.79 310.719 146.36 311.112 147.013C311.504 147.666 311.763 148.39 311.875 149.143C311.987 149.896 311.948 150.664 311.762 151.402C311.576 152.141 311.246 152.835 310.791 153.447C310.336 154.058 309.764 154.574 309.109 154.965C308.454 155.356 307.728 155.614 306.972 155.726V155.715Z" fill="#445743"/>
<path opacity="0.5" d="M294.536 175.686C291.484 176.683 280.824 174.066 280.824 174.066C280.824 174.066 287.865 165.667 290.917 164.67C292.383 164.19 293.979 164.31 295.356 165.004C296.732 165.697 297.776 166.908 298.258 168.368C298.739 169.829 298.619 171.421 297.923 172.793C297.227 174.165 296.013 175.206 294.548 175.686H294.536Z" fill="#445743"/>
<path opacity="0.5" d="M291.744 127.132C293.227 129.972 302.694 135.531 302.694 135.531C302.694 135.531 303.554 124.621 302.071 121.779C301.719 121.103 301.236 120.504 300.651 120.015C300.067 119.525 299.391 119.155 298.663 118.926C297.934 118.697 297.168 118.613 296.407 118.68C295.647 118.746 294.907 118.961 294.229 119.312C293.552 119.663 292.95 120.144 292.46 120.727C291.969 121.31 291.598 121.984 291.368 122.71C291.138 123.436 291.054 124.2 291.12 124.958C291.187 125.716 291.402 126.454 291.755 127.129L291.744 127.132Z" fill="#445743"/>
<path opacity="0.5" d="M277.498 150.67C279.766 152.939 290.456 155.422 290.456 155.422C290.456 155.422 288.001 144.754 285.736 142.485C284.648 141.396 283.17 140.783 281.628 140.78C280.086 140.777 278.606 141.385 277.513 142.47C276.421 143.555 275.805 145.028 275.803 146.565C275.8 148.103 276.409 149.578 277.498 150.667V150.67Z" fill="#445743"/>
<path opacity="0.5" d="M266.802 175.444C268.651 178.06 278.769 182.312 278.769 182.312C278.769 182.312 278.16 171.385 276.308 168.765C275.88 168.116 275.325 167.559 274.676 167.127C274.027 166.696 273.298 166.399 272.532 166.255C271.766 166.11 270.979 166.12 270.217 166.285C269.455 166.45 268.734 166.766 268.097 167.214C267.46 167.662 266.92 168.234 266.509 168.894C266.098 169.555 265.824 170.291 265.705 171.059C265.585 171.827 265.621 172.611 265.812 173.365C266.002 174.119 266.343 174.827 266.813 175.446L266.802 175.444Z" fill="#445743"/>
<path opacity="0.5" d="M280.02 184.511C280.02 184.511 271.642 172.362 273.111 160.932C273.758 156.141 272.829 151.271 270.463 147.051C269.324 145.057 268.004 143.171 266.52 141.417" stroke="#535461" stroke-width="2" stroke-miterlimit="10"/>
<path opacity="0.5" d="M267.405 134.206C267.944 135.854 266.52 141.605 266.52 141.605C266.52 141.605 261.959 137.803 261.42 136.157C261.161 135.366 261.228 134.505 261.606 133.763C261.983 133.021 262.642 132.458 263.435 132.2C264.229 131.942 265.093 132.008 265.837 132.385C266.582 132.761 267.146 133.417 267.405 134.209V134.206Z" fill="#445743"/>
<path opacity="0.5" d="M275.345 141.72C274.901 143.39 270.566 147.452 270.566 147.452C270.566 147.452 268.813 141.79 269.257 140.114C269.47 139.309 269.996 138.622 270.718 138.203C271.44 137.785 272.299 137.669 273.106 137.882C273.914 138.095 274.603 138.619 275.023 139.339C275.443 140.059 275.558 140.915 275.345 141.72Z" fill="#445743"/>
<path opacity="0.5" d="M280.243 157.382C279.012 158.604 273.217 159.926 273.217 159.926C273.217 159.926 274.568 154.155 275.803 152.933C276.096 152.643 276.444 152.412 276.827 152.256C277.209 152.099 277.619 152.019 278.033 152.021C278.447 152.022 278.856 152.104 279.238 152.263C279.619 152.422 279.966 152.655 280.257 152.947C280.549 153.24 280.78 153.586 280.937 153.968C281.094 154.349 281.174 154.758 281.173 155.17C281.172 155.582 281.089 155.99 280.929 156.371C280.77 156.751 280.537 157.097 280.243 157.387V157.382Z" fill="#445743"/>
<path opacity="0.5" d="M281.274 170.068C280.265 171.48 274.767 173.754 274.767 173.754C274.767 173.754 275.121 167.838 276.129 166.427C276.369 166.091 276.672 165.805 277.023 165.586C277.373 165.367 277.763 165.219 278.171 165.15C278.578 165.082 278.996 165.094 279.399 165.186C279.802 165.278 280.183 165.448 280.52 165.687C280.857 165.925 281.143 166.228 281.363 166.577C281.583 166.926 281.731 167.315 281.8 167.721C281.869 168.128 281.857 168.544 281.765 168.945C281.673 169.347 281.502 169.727 281.262 170.063L281.274 170.068Z" fill="#445743"/>
<path opacity="0.5" d="M264.389 149.813C265.95 150.575 271.862 149.963 271.862 149.963C271.862 149.963 268.715 144.935 267.154 144.175C266.404 143.81 265.539 143.756 264.749 144.026C263.96 144.297 263.31 144.868 262.944 145.616C262.577 146.363 262.523 147.226 262.794 148.013C263.065 148.8 263.639 149.447 264.389 149.813Z" fill="#445743"/>
<path opacity="0.5" d="M265.783 164.637C267.503 164.898 272.96 162.551 272.96 162.551C272.96 162.551 268.447 158.693 266.729 158.442C265.904 158.317 265.062 158.524 264.39 159.018C263.717 159.511 263.269 160.25 263.143 161.073C263.018 161.896 263.225 162.735 263.72 163.405C264.215 164.076 264.957 164.523 265.783 164.648V164.637Z" fill="#445743"/>
<path opacity="0.5" d="M269.117 178.854C270.767 179.411 276.546 178.019 276.546 178.019C276.546 178.019 272.753 173.456 271.103 172.908C270.31 172.645 269.445 172.707 268.699 173.08C267.952 173.453 267.385 174.107 267.122 174.897C266.858 175.687 266.921 176.549 267.295 177.293C267.669 178.037 268.324 178.603 269.117 178.865V178.854Z" fill="#445743"/>
<path opacity="0.5" d="M267.405 134.206C267.944 135.854 266.52 141.605 266.52 141.605C266.52 141.605 261.959 137.803 261.42 136.157C261.161 135.366 261.228 134.505 261.606 133.763C261.983 133.021 262.642 132.458 263.435 132.2C264.229 131.942 265.093 132.008 265.837 132.385C266.582 132.761 267.146 133.417 267.405 134.209V134.206Z" fill="white"/>
<path opacity="0.5" d="M275.345 141.72C274.901 143.39 270.566 147.452 270.566 147.452C270.566 147.452 268.813 141.79 269.257 140.114C269.47 139.309 269.996 138.622 270.718 138.203C271.44 137.785 272.299 137.669 273.106 137.882C273.914 138.095 274.603 138.619 275.023 139.339C275.443 140.059 275.558 140.915 275.345 141.72Z" fill="white"/>
<path opacity="0.5" d="M280.243 157.382C279.012 158.604 273.217 159.926 273.217 159.926C273.217 159.926 274.568 154.155 275.803 152.933C276.096 152.643 276.444 152.412 276.827 152.256C277.209 152.099 277.619 152.019 278.033 152.021C278.447 152.022 278.856 152.104 279.238 152.263C279.619 152.422 279.966 152.655 280.257 152.947C280.549 153.24 280.78 153.586 280.937 153.968C281.094 154.349 281.174 154.758 281.173 155.17C281.172 155.582 281.089 155.99 280.929 156.371C280.77 156.751 280.537 157.097 280.243 157.387V157.382Z" fill="white"/>
<path opacity="0.5" d="M281.274 170.068C280.265 171.48 274.767 173.754 274.767 173.754C274.767 173.754 275.121 167.838 276.129 166.427C276.369 166.091 276.672 165.805 277.023 165.586C277.373 165.367 277.763 165.219 278.171 165.15C278.578 165.082 278.996 165.094 279.399 165.186C279.802 165.278 280.183 165.448 280.52 165.687C280.857 165.925 281.143 166.228 281.363 166.577C281.583 166.926 281.731 167.315 281.8 167.721C281.869 168.128 281.857 168.544 281.765 168.945C281.673 169.347 281.502 169.727 281.262 170.063L281.274 170.068Z" fill="white"/>
<path opacity="0.5" d="M264.389 149.813C265.95 150.575 271.862 149.963 271.862 149.963C271.862 149.963 268.715 144.935 267.154 144.175C266.404 143.81 265.539 143.756 264.749 144.026C263.96 144.297 263.31 144.868 262.944 145.616C262.577 146.363 262.523 147.226 262.794 148.013C263.065 148.8 263.639 149.447 264.389 149.813Z" fill="white"/>
<path opacity="0.5" d="M265.783 164.637C267.503 164.898 272.96 162.551 272.96 162.551C272.96 162.551 268.447 158.693 266.729 158.442C265.904 158.317 265.062 158.524 264.39 159.018C263.717 159.511 263.269 160.25 263.143 161.073C263.018 161.896 263.225 162.735 263.72 163.405C264.215 164.076 264.957 164.523 265.783 164.648V164.637Z" fill="white"/>
<path opacity="0.5" d="M269.117 178.854C270.767 179.411 276.546 178.019 276.546 178.019C276.546 178.019 272.753 173.456 271.103 172.908C270.31 172.645 269.445 172.707 268.699 173.08C267.952 173.453 267.385 174.107 267.122 174.897C266.858 175.687 266.921 176.549 267.295 177.293C267.669 178.037 268.324 178.603 269.117 178.865V178.854Z" fill="white"/>
<path opacity="0.5" d="M264.517 217.453H288.348L294.307 181.226H258.561L264.517 217.453Z" fill="#474059"/>
<path opacity="0.1" d="M263.121 181.226L268.687 215.078H288.739L288.348 217.453H264.517L258.561 181.226H263.121Z" fill="black"/>
</g>
<path d="M269.036 10.938H94.2119V221.206H269.036V10.938Z" fill="url(#paint0_linear)"/>
<path d="M266.802 13.6274H96.446V218.522H266.802V13.6274Z" fill="white"/>
<path d="M231.334 36.7334H162.634V40.0741H231.334V36.7334Z" fill="#C0BCCF"/>
<path d="M231.334 47.3125H162.634V50.6532H231.334V47.3125Z" fill="#C0BCCF"/>
<path d="M214.857 57.8911H179.111V61.2318H214.857V57.8911Z" fill="#445743"/>
<path opacity="0.5" d="M231.334 103.826H162.634V107.166H231.334V103.826Z" fill="#C0BCCF"/>
<path opacity="0.5" d="M231.334 114.404H162.634V117.745H231.334V114.404Z" fill="#C0BCCF"/>
<path opacity="0.5" d="M214.857 124.983H179.111V128.324H214.857V124.983Z" fill="#445743"/>
<path opacity="0.5" d="M231.334 170.917H162.634V174.258H231.334V170.917Z" fill="#C0BCCF"/>
<path opacity="0.5" d="M231.334 181.496H162.634V184.837H231.334V181.496Z" fill="#C0BCCF"/>
<path opacity="0.5" d="M214.857 192.075H179.111V195.416H214.857V192.075Z" fill="#445743"/>
<g opacity="0.5">
<path opacity="0.5" d="M138.446 122.458L137.005 121.812C137.027 121.594 137.036 121.375 137.033 121.155C137.043 120.97 137.043 120.784 137.033 120.598C136.89 119.134 135.955 117.859 135.293 116.52C134.687 115.298 134.302 113.978 134.156 112.623C133.98 110.952 134.156 109.221 133.542 107.651C133.042 106.384 132.053 105.326 130.995 104.391C129.807 103.279 128.418 102.402 126.903 101.804C125.356 101.248 123.577 101.106 122.03 101.674C120.634 102.186 119.558 103.207 118.52 104.201C117.765 104.864 117.099 105.62 116.537 106.451C115.903 107.486 115.632 108.678 115.42 109.853C115.086 111.734 114.857 113.631 114.733 115.537C114.624 117.127 114.453 118.931 113.091 119.905C112.426 120.381 111.49 120.649 111.186 121.37C111.1 121.586 111.065 121.82 111.085 122.052C111.077 122.245 111.091 122.438 111.127 122.628C111.147 122.739 111.169 122.848 111.197 122.959C110.806 123.928 110.478 124.921 110.214 125.932C110.01 126.684 109.823 127.422 109.656 128.137H110.108H110.348L112.951 128.198H112.987L115.78 128.263H115.794L118.397 128.324H118.461L119.212 128.377H119.458L129.866 128.616H129.922L130.615 128.633H130.858L132.941 128.68L136.013 128.75H136.036L138.348 128.805H138.594H139.068L138.946 126.389C139.454 122.689 138.446 122.458 138.446 122.458ZM126.753 122.163C126.753 124.212 124.552 126.72 124.552 126.72L122.337 123.714L122.418 123.597L124.552 126.492C124.552 126.492 126.753 123.986 126.753 121.935C126.804 121.83 126.863 121.73 126.928 121.634L126.979 121.79C126.894 121.909 126.819 122.033 126.753 122.163ZM130.137 130.203C130.137 130.1 130.137 129.994 130.118 129.891C130.098 129.788 130.101 129.696 130.087 129.596C130.073 129.496 130.062 129.398 130.048 129.298C130.034 129.198 130.014 129.1 129.995 129C129.975 128.9 129.956 128.803 129.933 128.702C129.933 128.669 129.919 128.638 129.911 128.602C129.88 128.471 129.847 128.34 129.811 128.21C129.774 128.079 129.752 127.998 129.718 127.895C129.718 127.848 129.69 127.8 129.674 127.756C129.657 127.711 129.626 127.606 129.601 127.53L129.551 127.386C129.528 127.322 129.506 127.255 129.481 127.191C129.439 127.074 129.394 126.96 129.35 126.843C129.305 126.726 129.258 126.612 129.21 126.498C129.115 126.264 129.012 126.033 128.909 125.799C128.504 124.897 128.048 124.009 127.629 123.129C127.405 122.669 127.205 122.197 127.032 121.715L126.979 121.784C126.894 121.904 126.819 122.03 126.753 122.16C126.753 124.209 124.552 126.717 124.552 126.717L122.337 123.711L120.399 126.495C120.12 126.634 119.841 127.107 119.623 127.781C119.561 127.962 119.503 128.162 119.447 128.371C119.408 128.513 119.371 128.649 119.338 128.808C119.318 128.883 119.302 128.958 119.285 129.036L119.235 129.273V129.309C119.201 129.471 119.168 129.638 119.137 129.808C119.106 129.977 119.07 130.172 119.039 130.364C119.017 130.485 118.997 130.605 118.98 130.723C118.941 130.955 118.908 131.188 118.874 131.422C118.855 131.559 118.835 131.701 118.818 131.826L118.751 132.344C118.894 132.77 119.053 133.179 119.218 133.608C119.323 133.833 119.384 134.075 119.399 134.323C122.835 135.236 126.45 135.236 129.886 134.323C129.885 134.315 129.885 134.306 129.886 134.298C129.834 134.065 129.812 133.827 129.819 133.588C129.875 132.919 129.969 132.254 130.098 131.595C130.14 131.27 130.157 130.942 130.151 130.615V130.498C130.143 130.392 130.14 130.298 130.137 130.206V130.203ZM130.137 130.203C130.137 130.1 130.137 129.994 130.118 129.891C130.098 129.788 130.101 129.696 130.087 129.596C130.073 129.496 130.062 129.398 130.048 129.298C130.034 129.198 130.014 129.1 129.995 129C129.975 128.9 129.956 128.803 129.933 128.702C129.933 128.669 129.919 128.638 129.911 128.602C129.88 128.471 129.847 128.34 129.811 128.21C129.774 128.079 129.752 127.998 129.718 127.895C129.718 127.848 129.69 127.8 129.674 127.756C129.657 127.711 129.626 127.606 129.601 127.53L129.551 127.386C129.528 127.322 129.506 127.255 129.481 127.191C129.439 127.074 129.394 126.96 129.35 126.843C129.305 126.726 129.258 126.612 129.21 126.498C129.115 126.264 129.012 126.033 128.909 125.799C128.504 124.897 128.048 124.009 127.629 123.129C127.405 122.669 127.205 122.197 127.032 121.715L126.979 121.784C126.894 121.904 126.819 122.03 126.753 122.16C126.753 124.209 124.552 126.717 124.552 126.717L122.337 123.711L120.399 126.495C120.12 126.634 119.841 127.107 119.623 127.781C119.561 127.962 119.503 128.162 119.447 128.371C119.408 128.513 119.371 128.649 119.338 128.808C119.318 128.883 119.302 128.958 119.285 129.036L119.235 129.273V129.309C119.201 129.471 119.168 129.638 119.137 129.808C119.106 129.977 119.07 130.172 119.039 130.364C119.017 130.485 118.997 130.605 118.98 130.723C118.941 130.955 118.908 131.188 118.874 131.422C118.855 131.559 118.835 131.701 118.818 131.826L118.751 132.344C118.894 132.77 119.053 133.179 119.218 133.608C119.323 133.833 119.384 134.075 119.399 134.323C122.835 135.236 126.45 135.236 129.886 134.323C129.885 134.315 129.885 134.306 129.886 134.298C129.834 134.065 129.812 133.827 129.819 133.588C129.875 132.919 129.969 132.254 130.098 131.595C130.14 131.27 130.157 130.942 130.151 130.615V130.498C130.143 130.392 130.14 130.298 130.137 130.206V130.203ZM130.137 130.203C130.137 130.1 130.137 129.994 130.118 129.891C130.098 129.788 130.101 129.696 130.087 129.596C130.073 129.496 130.062 129.398 130.048 129.298C130.034 129.198 130.014 129.1 129.995 129C129.975 128.9 129.956 128.803 129.933 128.702C129.933 128.669 129.919 128.638 129.911 128.602C129.88 128.471 129.847 128.34 129.811 128.21C129.774 128.079 129.752 127.998 129.718 127.895C129.718 127.848 129.69 127.8 129.674 127.756C129.657 127.711 129.626 127.606 129.601 127.53L129.551 127.386C129.528 127.322 129.506 127.255 129.481 127.191C129.439 127.074 129.394 126.96 129.35 126.843C129.305 126.726 129.258 126.612 129.21 126.498C129.115 126.264 129.012 126.033 128.909 125.799C128.504 124.897 128.048 124.009 127.629 123.129C127.405 122.669 127.205 122.197 127.032 121.715L126.979 121.784C126.894 121.904 126.819 122.03 126.753 122.16C126.753 124.209 124.552 126.717 124.552 126.717L122.337 123.711L120.399 126.495C120.12 126.634 119.841 127.107 119.623 127.781C119.561 127.962 119.503 128.162 119.447 128.371C119.408 128.513 119.371 128.649 119.338 128.808C119.318 128.883 119.302 128.958 119.285 129.036L119.235 129.273V129.309C119.201 129.471 119.168 129.638 119.137 129.808C119.106 129.977 119.07 130.172 119.039 130.364C119.017 130.485 118.997 130.605 118.98 130.723C118.941 130.955 118.908 131.188 118.874 131.422C118.855 131.559 118.835 131.701 118.818 131.826L118.751 132.344C118.894 132.77 119.053 133.179 119.218 133.608C119.323 133.833 119.384 134.075 119.399 134.323C122.835 135.236 126.45 135.236 129.886 134.323C129.885 134.315 129.885 134.306 129.886 134.298C129.834 134.065 129.812 133.827 129.819 133.588C129.875 132.919 129.969 132.254 130.098 131.595C130.14 131.27 130.157 130.942 130.151 130.615V130.498C130.143 130.392 130.14 130.298 130.137 130.206V130.203ZM130.137 130.203C130.137 130.1 130.137 129.994 130.118 129.891C130.098 129.788 130.101 129.696 130.087 129.596C130.073 129.496 130.062 129.398 130.048 129.298C130.034 129.198 130.014 129.1 129.995 129C129.975 128.9 129.956 128.803 129.933 128.702C129.933 128.669 129.919 128.638 129.911 128.602C129.88 128.471 129.847 128.34 129.811 128.21C129.774 128.079 129.752 127.998 129.718 127.895C129.718 127.848 129.69 127.8 129.674 127.756C129.657 127.711 129.626 127.606 129.601 127.53L129.551 127.386C129.528 127.322 129.506 127.255 129.481 127.191C129.439 127.074 129.394 126.96 129.35 126.843C129.305 126.726 129.258 126.612 129.21 126.498C129.115 126.264 129.012 126.033 128.909 125.799C128.504 124.897 128.048 124.009 127.629 123.129C127.405 122.669 127.205 122.197 127.032 121.715L126.979 121.784C126.894 121.904 126.819 122.03 126.753 122.16C126.753 124.209 124.552 126.717 124.552 126.717L122.337 123.711L120.399 126.495C120.12 126.634 119.841 127.107 119.623 127.781C119.561 127.962 119.503 128.162 119.447 128.371C119.408 128.513 119.371 128.649 119.338 128.808C119.318 128.883 119.302 128.958 119.285 129.036L119.235 129.273V129.309C119.201 129.471 119.168 129.638 119.137 129.808C119.106 129.977 119.07 130.172 119.039 130.364C119.017 130.485 118.997 130.605 118.98 130.723C118.941 130.955 118.908 131.188 118.874 131.422C118.855 131.559 118.835 131.701 118.818 131.826L118.751 132.344C118.894 132.77 119.053 133.179 119.218 133.608C119.323 133.833 119.384 134.075 119.399 134.323C122.835 135.236 126.45 135.236 129.886 134.323C129.885 134.315 129.885 134.306 129.886 134.298C129.834 134.065 129.812 133.827 129.819 133.588C129.875 132.919 129.969 132.254 130.098 131.595C130.14 131.27 130.157 130.942 130.151 130.615V130.498C130.143 130.392 130.14 130.298 130.137 130.206V130.203Z" fill="url(#paint1_linear)"/>
<path opacity="0.5" d="M130.238 110.785H117.391V119.415H130.238V110.785Z" fill="#493545"/>
<path opacity="0.5" d="M132.371 120.303L126.996 127.853L121.377 127.366C121.377 127.366 114.046 127.851 118.933 122.252C121.282 119.56 122.05 117.316 122.214 115.716C122.393 113.984 121.865 112.998 121.865 112.998L127.973 112.269C127.697 113.089 127.662 113.971 127.872 114.811C128.638 117.973 132.371 120.303 132.371 120.303Z" fill="#C77485"/>
<path opacity="0.1" d="M127.87 114.803C127.073 115.404 126.141 115.801 125.154 115.959C124.168 116.118 123.157 116.032 122.212 115.71C122.39 113.979 121.863 112.993 121.863 112.993L127.97 112.264C127.695 113.083 127.66 113.964 127.87 114.803Z" fill="black"/>
<path opacity="0.5" d="M124.186 115.793C127.559 115.793 130.294 113.068 130.294 109.705C130.294 106.343 127.559 103.617 124.186 103.617C120.813 103.617 118.078 106.343 118.078 109.705C118.078 113.068 120.813 115.793 124.186 115.793Z" fill="#C77485"/>
<path opacity="0.1" d="M132.148 120.615L132.006 120.059L131.883 119.569L131.701 118.845L131.668 118.711L131.64 118.6C131.64 118.6 131.785 118.163 130.827 118.305L130.648 118.335C130.498 118.366 130.322 118.408 130.121 118.463L129.939 118.519L129.699 118.594C128.938 118.841 128.245 119.258 127.671 119.814C127.414 120.059 127.186 120.334 126.993 120.632C126.973 120.66 126.959 120.685 126.942 120.707C126.876 120.811 126.817 120.919 126.766 121.03C126.766 123.224 124.566 125.902 124.566 125.902L122.418 122.809L122.376 122.748L121.865 122.007L121.684 121.768L121.622 121.684L120.505 120.189L120.226 119.816L120.134 119.691L119.997 119.51L119.676 119.084L118.419 119.816L116.743 120.791L115.766 127.124V127.3L115.797 127.823L116.001 131.264V131.311L115.643 132.736L115.696 132.764C116.54 133.218 117.417 133.605 118.321 133.922L118.559 134.006C118.838 134.098 119.1 134.181 119.374 134.262C119.384 134.303 119.392 134.345 119.396 134.387C119.396 134.348 119.396 134.307 119.396 134.268C122.823 135.244 126.456 135.244 129.883 134.268L129.947 134.248C130.107 134.204 130.269 134.156 130.425 134.103L130.679 134.023C131.368 133.793 132.043 133.523 132.701 133.215L132.936 128.232L133.103 124.638V124.432L132.148 120.615Z" fill="black"/>
<path opacity="0.5" d="M130.137 129.872C130.137 129.76 130.137 129.649 130.118 129.538C130.098 129.426 130.101 129.329 130.087 129.223C130.073 129.117 130.062 129.011 130.048 128.906C130.034 128.8 130.014 128.694 129.995 128.588C129.975 128.483 129.956 128.377 129.934 128.271C129.934 128.235 129.92 128.201 129.911 128.165C129.88 128.026 129.847 127.887 129.811 127.745C129.774 127.603 129.752 127.519 129.718 127.408C129.718 127.358 129.691 127.308 129.674 127.26C129.657 127.213 129.626 127.099 129.601 127.018L129.551 126.862C129.529 126.793 129.506 126.723 129.481 126.653C129.439 126.528 129.395 126.406 129.35 126.28C129.305 126.155 129.258 126.033 129.21 125.91C129.115 125.66 129.012 125.412 128.909 125.164C128.504 124.201 128.048 123.252 127.63 122.311C127.404 121.817 127.205 121.313 127.032 120.799L126.979 120.874C126.894 121.002 126.818 121.136 126.753 121.275C126.753 123.466 124.552 126.147 124.552 126.147L122.337 122.931L120.399 125.902C120.12 126.049 119.841 126.556 119.623 127.277C119.561 127.472 119.503 127.684 119.447 127.909C119.408 128.059 119.371 128.218 119.338 128.377C119.318 128.457 119.302 128.538 119.285 128.622L119.235 128.875V128.914C119.201 129.087 119.168 129.265 119.137 129.446C119.106 129.627 119.07 129.835 119.039 130.033C119.017 130.161 118.997 130.289 118.98 130.417C118.941 130.665 118.908 130.916 118.874 131.163C118.855 131.308 118.835 131.442 118.818 131.595L118.751 132.152C118.894 132.608 119.053 133.059 119.218 133.502C119.323 133.744 119.385 134.004 119.399 134.267C122.826 135.244 126.459 135.244 129.886 134.267C129.885 134.258 129.885 134.249 129.886 134.24C129.834 133.99 129.812 133.735 129.819 133.48C129.875 132.765 129.969 132.055 130.098 131.35C130.139 131.003 130.157 130.653 130.151 130.303V130.178C130.143 130.072 130.14 129.972 130.137 129.872ZM130.137 129.872C130.137 129.76 130.137 129.649 130.118 129.538C130.098 129.426 130.101 129.329 130.087 129.223C130.073 129.117 130.062 129.011 130.048 128.906C130.034 128.8 130.014 128.694 129.995 128.588C129.975 128.483 129.956 128.377 129.934 128.271C129.934 128.235 129.92 128.201 129.911 128.165C129.88 128.026 129.847 127.887 129.811 127.745C129.774 127.603 129.752 127.519 129.718 127.408C129.718 127.358 129.691 127.308 129.674 127.26C129.657 127.213 129.626 127.099 129.601 127.018L129.551 126.862C129.529 126.793 129.506 126.723 129.481 126.653C129.439 126.528 129.395 126.406 129.35 126.28C129.305 126.155 129.258 126.033 129.21 125.91C129.115 125.66 129.012 125.412 128.909 125.164C128.504 124.201 128.048 123.252 127.63 122.311C127.404 121.817 127.205 121.313 127.032 120.799L126.979 120.874C126.894 121.002 126.818 121.136 126.753 121.275C126.753 123.466 124.552 126.147 124.552 126.147L122.337 122.931L120.399 125.902C120.12 126.049 119.841 126.556 119.623 127.277C119.561 127.472 119.503 127.684 119.447 127.909C119.408 128.059 119.371 128.218 119.338 128.377C119.318 128.457 119.302 128.538 119.285 128.622L119.235 128.875V128.914C119.201 129.087 119.168 129.265 119.137 129.446C119.106 129.627 119.07 129.835 119.039 130.033C119.017 130.161 118.997 130.289 118.98 130.417C118.941 130.665 118.908 130.916 118.874 131.163C118.855 131.308 118.835 131.442 118.818 131.595L118.751 132.152C118.894 132.608 119.053 133.059 119.218 133.502C119.323 133.744 119.385 134.004 119.399 134.267C122.826 135.244 126.459 135.244 129.886 134.267C129.885 134.258 129.885 134.249 129.886 134.24C129.834 133.99 129.812 133.735 129.819 133.48C129.875 132.765 129.969 132.055 130.098 131.35C130.139 131.003 130.157 130.653 130.151 130.303V130.178C130.143 130.072 130.14 129.972 130.137 129.872ZM130.137 129.872C130.137 129.76 130.137 129.649 130.118 129.538C130.098 129.426 130.101 129.329 130.087 129.223C130.073 129.117 130.062 129.011 130.048 128.906C130.034 128.8 130.014 128.694 129.995 128.588C129.975 128.483 129.956 128.377 129.934 128.271C129.934 128.235 129.92 128.201 129.911 128.165C129.88 128.026 129.847 127.887 129.811 127.745C129.774 127.603 129.752 127.519 129.718 127.408C129.718 127.358 129.691 127.308 129.674 127.26C129.657 127.213 129.626 127.099 129.601 127.018L129.551 126.862C129.529 126.793 129.506 126.723 129.481 126.653C129.439 126.528 129.395 126.406 129.35 126.28C129.305 126.155 129.258 126.033 129.21 125.91C129.115 125.66 129.012 125.412 128.909 125.164C128.504 124.201 128.048 123.252 127.63 122.311C127.404 121.817 127.205 121.313 127.032 120.799L126.979 120.874C126.894 121.002 126.818 121.136 126.753 121.275C126.753 123.466 124.552 126.147 124.552 126.147L122.337 122.931L120.399 125.902C120.12 126.049 119.841 126.556 119.623 127.277C119.561 127.472 119.503 127.684 119.447 127.909C119.408 128.059 119.371 128.218 119.338 128.377C119.318 128.457 119.302 128.538 119.285 128.622L119.235 128.875V128.914C119.201 129.087 119.168 129.265 119.137 129.446C119.106 129.627 119.07 129.835 119.039 130.033C119.017 130.161 118.997 130.289 118.98 130.417C118.941 130.665 118.908 130.916 118.874 131.163C118.855 131.308 118.835 131.442 118.818 131.595L118.751 132.152C118.894 132.608 119.053 133.059 119.218 133.502C119.323 133.744 119.385 134.004 119.399 134.267C122.826 135.244 126.459 135.244 129.886 134.267C129.885 134.258 129.885 134.249 129.886 134.24C129.834 133.99 129.812 133.735 129.819 133.48C129.875 132.765 129.969 132.055 130.098 131.35C130.139 131.003 130.157 130.653 130.151 130.303V130.178C130.143 130.072 130.14 129.972 130.137 129.872ZM133.098 124.646L132.101 120.679L131.93 120L131.883 119.813L131.64 118.845C131.64 118.836 131.64 118.828 131.64 118.82C131.646 118.777 131.639 118.733 131.62 118.694C131.584 118.622 131.492 118.547 131.277 118.527C131.195 118.522 131.113 118.522 131.031 118.527C130.788 118.551 130.548 118.596 130.313 118.661C130.199 118.692 130.076 118.725 129.945 118.767L129.704 118.842H129.682C129.039 119.052 128.442 119.383 127.923 119.816C127.58 120.101 127.279 120.433 127.029 120.802L126.976 120.877C126.891 121.005 126.816 121.139 126.75 121.278C126.75 123.469 124.549 126.15 124.549 126.15L122.335 122.934L122.209 122.753L122.186 122.723L121.865 122.252L121.622 121.929L121.558 121.846L120.413 120.323L120.05 119.83V119.813L119.924 119.644L119.684 119.326L118.846 119.813L116.752 121.03L115.786 127.297V127.363L115.814 127.82L116.02 131.308V131.506L115.705 132.761C116.548 133.215 117.426 133.602 118.33 133.919L118.567 134.003C118.846 134.095 119.109 134.178 119.383 134.259C119.393 134.3 119.4 134.342 119.405 134.384C119.405 134.345 119.405 134.304 119.405 134.265C122.832 135.241 126.465 135.241 129.892 134.265L129.956 134.245C130.115 134.201 130.277 134.153 130.433 134.1L130.688 134.02C131.377 133.79 132.052 133.52 132.709 133.212L132.941 128.235L133.109 124.68L133.098 124.646ZM119.363 134.259C119.373 134.3 119.381 134.342 119.385 134.384C119.385 134.345 119.385 134.304 119.385 134.265L119.363 134.259ZM130.137 129.872C130.137 129.76 130.137 129.649 130.118 129.538C130.098 129.426 130.101 129.329 130.087 129.223C130.073 129.117 130.062 129.011 130.048 128.906C130.034 128.8 130.014 128.694 129.995 128.588C129.975 128.483 129.956 128.377 129.934 128.271C129.934 128.235 129.92 128.201 129.911 128.165C129.88 128.026 129.847 127.887 129.811 127.745C129.774 127.603 129.752 127.519 129.718 127.408C129.718 127.358 129.691 127.308 129.674 127.26C129.657 127.213 129.626 127.099 129.601 127.018L129.551 126.862C129.529 126.793 129.506 126.723 129.481 126.653C129.439 126.528 129.395 126.406 129.35 126.28C129.305 126.155 129.258 126.033 129.21 125.91C129.115 125.66 129.012 125.412 128.909 125.164C128.504 124.201 128.048 123.252 127.63 122.311C127.404 121.817 127.205 121.313 127.032 120.799L126.979 120.874C126.894 121.002 126.818 121.136 126.753 121.275C126.753 123.466 124.552 126.147 124.552 126.147L122.337 122.931L120.399 125.902C120.12 126.049 119.841 126.556 119.623 127.277C119.561 127.472 119.503 127.684 119.447 127.909C119.408 128.059 119.371 128.218 119.338 128.377C119.318 128.457 119.302 128.538 119.285 128.622L119.235 128.875V128.914C119.201 129.087 119.168 129.265 119.137 129.446C119.106 129.627 119.07 129.835 119.039 130.033C119.017 130.161 118.997 130.289 118.98 130.417C118.941 130.665 118.908 130.916 118.874 131.163C118.855 131.308 118.835 131.442 118.818 131.595L118.751 132.152C118.894 132.608 119.053 133.059 119.218 133.502C119.323 133.744 119.385 134.004 119.399 134.267C122.826 135.244 126.459 135.244 129.886 134.267C129.885 134.258 129.885 134.249 129.886 134.24C129.834 133.99 129.812 133.735 129.819 133.48C129.875 132.765 129.969 132.055 130.098 131.35C130.139 131.003 130.157 130.653 130.151 130.303V130.178C130.143 130.072 130.14 129.972 130.137 129.872ZM130.137 129.872C130.137 129.76 130.137 129.649 130.118 129.538C130.098 129.426 130.101 129.329 130.087 129.223C130.073 129.117 130.062 129.011 130.048 128.906C130.034 128.8 130.014 128.694 129.995 128.588C129.975 128.483 129.956 128.377 129.934 128.271C129.934 128.235 129.92 128.201 129.911 128.165C129.88 128.026 129.847 127.887 129.811 127.745C129.774 127.603 129.752 127.519 129.718 127.408C129.718 127.358 129.691 127.308 129.674 127.26C129.657 127.213 129.626 127.099 129.601 127.018L129.551 126.862C129.529 126.793 129.506 126.723 129.481 126.653C129.439 126.528 129.395 126.406 129.35 126.28C129.305 126.155 129.258 126.033 129.21 125.91C129.115 125.66 129.012 125.412 128.909 125.164C128.504 124.201 128.048 123.252 127.63 122.311C127.404 121.817 127.205 121.313 127.032 120.799L126.979 120.874C126.894 121.002 126.818 121.136 126.753 121.275C126.753 123.466 124.552 126.147 124.552 126.147L122.337 122.931L120.399 125.902C120.12 126.049 119.841 126.556 119.623 127.277C119.561 127.472 119.503 127.684 119.447 127.909C119.408 128.059 119.371 128.218 119.338 128.377C119.318 128.457 119.302 128.538 119.285 128.622L119.235 128.875V128.914C119.201 129.087 119.168 129.265 119.137 129.446C119.106 129.627 119.07 129.835 119.039 130.033C119.017 130.161 118.997 130.289 118.98 130.417C118.941 130.665 118.908 130.916 118.874 131.163C118.855 131.308 118.835 131.442 118.818 131.595L118.751 132.152C118.894 132.608 119.053 133.059 119.218 133.502C119.323 133.744 119.385 134.004 119.399 134.267C122.826 135.244 126.459 135.244 129.886 134.267C129.885 134.258 129.885 134.249 129.886 134.24C129.834 133.99 129.812 133.735 129.819 133.48C129.875 132.765 129.969 132.055 130.098 131.35C130.139 131.003 130.157 130.653 130.151 130.303V130.178C130.143 130.072 130.14 129.972 130.137 129.872ZM130.137 129.872C130.137 129.76 130.137 129.649 130.118 129.538C130.098 129.426 130.101 129.329 130.087 129.223C130.073 129.117 130.062 129.011 130.048 128.906C130.034 128.8 130.014 128.694 129.995 128.588C129.975 128.483 129.956 128.377 129.934 128.271C129.934 128.235 129.92 128.201 129.911 128.165C129.88 128.026 129.847 127.887 129.811 127.745C129.774 127.603 129.752 127.519 129.718 127.408C129.718 127.358 129.691 127.308 129.674 127.26C129.657 127.213 129.626 127.099 129.601 127.018L129.551 126.862C129.529 126.793 129.506 126.723 129.481 126.653C129.439 126.528 129.395 126.406 129.35 126.28C129.305 126.155 129.258 126.033 129.21 125.91C129.115 125.66 129.012 125.412 128.909 125.164C128.504 124.201 128.048 123.252 127.63 122.311C127.404 121.817 127.205 121.313 127.032 120.799L126.979 120.874C126.894 121.002 126.818 121.136 126.753 121.275C126.753 123.466 124.552 126.147 124.552 126.147L122.337 122.931L120.399 125.902C120.12 126.049 119.841 126.556 119.623 127.277C119.561 127.472 119.503 127.684 119.447 127.909C119.408 128.059 119.371 128.218 119.338 128.377C119.318 128.457 119.302 128.538 119.285 128.622L119.235 128.875V128.914C119.201 129.087 119.168 129.265 119.137 129.446C119.106 129.627 119.07 129.835 119.039 130.033C119.017 130.161 118.997 130.289 118.98 130.417C118.941 130.665 118.908 130.916 118.874 131.163C118.855 131.308 118.835 131.442 118.818 131.595L118.751 132.152C118.894 132.608 119.053 133.059 119.218 133.502C119.323 133.744 119.385 134.004 119.399 134.267C122.826 135.244 126.459 135.244 129.886 134.267C129.885 134.258 129.885 134.249 129.886 134.24C129.834 133.99 129.812 133.735 129.819 133.48C129.875 132.765 129.969 132.055 130.098 131.35C130.139 131.003 130.157 130.653 130.151 130.303V130.178C130.143 130.072 130.14 129.972 130.137 129.872ZM130.137 129.872C130.137 129.76 130.137 129.649 130.118 129.538C130.098 129.426 130.101 129.329 130.087 129.223C130.073 129.117 130.062 129.011 130.048 128.906C130.034 128.8 130.014 128.694 129.995 128.588C129.975 128.483 129.956 128.377 129.934 128.271C129.934 128.235 129.92 128.201 129.911 128.165C129.88 128.026 129.847 127.887 129.811 127.745C129.774 127.603 129.752 127.519 129.718 127.408C129.718 127.358 129.691 127.308 129.674 127.26C129.657 127.213 129.626 127.099 129.601 127.018L129.551 126.862C129.529 126.793 129.506 126.723 129.481 126.653C129.439 126.528 129.395 126.406 129.35 126.28C129.305 126.155 129.258 126.033 129.21 125.91C129.115 125.66 129.012 125.412 128.909 125.164C128.504 124.201 128.048 123.252 127.63 122.311C127.404 121.817 127.205 121.313 127.032 120.799L126.979 120.874C126.894 121.002 126.818 121.136 126.753 121.275C126.753 123.466 124.552 126.147 124.552 126.147L122.337 122.931L120.399 125.902C120.12 126.049 119.841 126.556 119.623 127.277C119.561 127.472 119.503 127.684 119.447 127.909C119.408 128.059 119.371 128.218 119.338 128.377C119.318 128.457 119.302 128.538 119.285 128.622L119.235 128.875V128.914C119.201 129.087 119.168 129.265 119.137 129.446C119.106 129.627 119.07 129.835 119.039 130.033C119.017 130.161 118.997 130.289 118.98 130.417C118.941 130.665 118.908 130.916 118.874 131.163C118.855 131.308 118.835 131.442 118.818 131.595L118.751 132.152C118.894 132.608 119.053 133.059 119.218 133.502C119.323 133.744 119.385 134.004 119.399 134.267C122.826 135.244 126.459 135.244 129.886 134.267C129.885 134.258 129.885 134.249 129.886 134.24C129.834 133.99 129.812 133.735 129.819 133.48C129.875 132.765 129.969 132.055 130.098 131.35C130.139 131.003 130.157 130.653 130.151 130.303V130.178C130.143 130.072 130.14 129.972 130.137 129.872ZM130.137 129.872C130.137 129.76 130.137 129.649 130.118 129.538C130.098 129.426 130.101 129.329 130.087 129.223C130.073 129.117 130.062 129.011 130.048 128.906C130.034 128.8 130.014 128.694 129.995 128.588C129.975 128.483 129.956 128.377 129.934 128.271C129.934 128.235 129.92 128.201 129.911 128.165C129.88 128.026 129.847 127.887 129.811 127.745C129.774 127.603 129.752 127.519 129.718 127.408C129.718 127.358 129.691 127.308 129.674 127.26C129.657 127.213 129.626 127.099 129.601 127.018L129.551 126.862C129.529 126.793 129.506 126.723 129.481 126.653C129.439 126.528 129.395 126.406 129.35 126.28C129.305 126.155 129.258 126.033 129.21 125.91C129.115 125.66 129.012 125.412 128.909 125.164C128.504 124.201 128.048 123.252 127.63 122.311C127.404 121.817 127.205 121.313 127.032 120.799L126.979 120.874C126.894 121.002 126.818 121.136 126.753 121.275C126.753 123.466 124.552 126.147 124.552 126.147L122.337 122.931L120.399 125.902C120.12 126.049 119.841 126.556 119.623 127.277C119.561 127.472 119.503 127.684 119.447 127.909C119.408 128.059 119.371 128.218 119.338 128.377C119.318 128.457 119.302 128.538 119.285 128.622L119.235 128.875V128.914C119.201 129.087 119.168 129.265 119.137 129.446C119.106 129.627 119.07 129.835 119.039 130.033C119.017 130.161 118.997 130.289 118.98 130.417C118.941 130.665 118.908 130.916 118.874 131.163C118.855 131.308 118.835 131.442 118.818 131.595L118.751 132.152C118.894 132.608 119.053 133.059 119.218 133.502C119.323 133.744 119.385 134.004 119.399 134.267C122.826 135.244 126.459 135.244 129.886 134.267C129.885 134.258 129.885 134.249 129.886 134.24C129.834 133.99 129.812 133.735 129.819 133.48C129.875 132.765 129.969 132.055 130.098 131.35C130.139 131.003 130.157 130.653 130.151 130.303V130.178C130.143 130.072 130.14 129.972 130.137 129.872ZM130.137 129.872C130.137 129.76 130.137 129.649 130.118 129.538C130.098 129.426 130.101 129.329 130.087 129.223C130.073 129.117 130.062 129.011 130.048 128.906C130.034 128.8 130.014 128.694 129.995 128.588C129.975 128.483 129.956 128.377 129.934 128.271C129.934 128.235 129.92 128.201 129.911 128.165C129.88 128.026 129.847 127.887 129.811 127.745C129.774 127.603 129.752 127.519 129.718 127.408C129.718 127.358 129.691 127.308 129.674 127.26C129.657 127.213 129.626 127.099 129.601 127.018L129.551 126.862C129.529 126.793 129.506 126.723 129.481 126.653C129.439 126.528 129.395 126.406 129.35 126.28C129.305 126.155 129.258 126.033 129.21 125.91C129.115 125.66 129.012 125.412 128.909 125.164C128.504 124.201 128.048 123.252 127.63 122.311C127.404 121.817 127.205 121.313 127.032 120.799L126.979 120.874C126.894 121.002 126.818 121.136 126.753 121.275C126.753 123.466 124.552 126.147 124.552 126.147L122.337 122.931L120.399 125.902C120.12 126.049 119.841 126.556 119.623 127.277C119.561 127.472 119.503 127.684 119.447 127.909C119.408 128.059 119.371 128.218 119.338 128.377C119.318 128.457 119.302 128.538 119.285 128.622L119.235 128.875V128.914C119.201 129.087 119.168 129.265 119.137 129.446C119.106 129.627 119.07 129.835 119.039 130.033C119.017 130.161 118.997 130.289 118.98 130.417C118.941 130.665 118.908 130.916 118.874 131.163C118.855 131.308 118.835 131.442 118.818 131.595L118.751 132.152C118.894 132.608 119.053 133.059 119.218 133.502C119.323 133.744 119.385 134.004 119.399 134.267C122.826 135.244 126.459 135.244 129.886 134.267C129.885 134.258 129.885 134.249 129.886 134.24C129.834 133.99 129.812 133.735 129.819 133.48C129.875 132.765 129.969 132.055 130.098 131.35C130.139 131.003 130.157 130.653 130.151 130.303V130.178C130.143 130.072 130.14 129.972 130.137 129.872ZM130.137 129.872C130.137 129.76 130.137 129.649 130.118 129.538C130.098 129.426 130.101 129.329 130.087 129.223C130.073 129.117 130.062 129.011 130.048 128.906C130.034 128.8 130.014 128.694 129.995 128.588C129.975 128.483 129.956 128.377 129.934 128.271C129.934 128.235 129.92 128.201 129.911 128.165C129.88 128.026 129.847 127.887 129.811 127.745C129.774 127.603 129.752 127.519 129.718 127.408C129.718 127.358 129.691 127.308 129.674 127.26C129.657 127.213 129.626 127.099 129.601 127.018L129.551 126.862C129.529 126.793 129.506 126.723 129.481 126.653C129.439 126.528 129.395 126.406 129.35 126.28C129.305 126.155 129.258 126.033 129.21 125.91C129.115 125.66 129.012 125.412 128.909 125.164C128.504 124.201 128.048 123.252 127.63 122.311C127.404 121.817 127.205 121.313 127.032 120.799L126.979 120.874C126.894 121.002 126.818 121.136 126.753 121.275C126.753 123.466 124.552 126.147 124.552 126.147L122.337 122.931L120.399 125.902C120.12 126.049 119.841 126.556 119.623 127.277C119.561 127.472 119.503 127.684 119.447 127.909C119.408 128.059 119.371 128.218 119.338 128.377C119.318 128.457 119.302 128.538 119.285 128.622L119.235 128.875V128.914C119.201 129.087 119.168 129.265 119.137 129.446C119.106 129.627 119.07 129.835 119.039 130.033C119.017 130.161 118.997 130.289 118.98 130.417C118.941 130.665 118.908 130.916 118.874 131.163C118.855 131.308 118.835 131.442 118.818 131.595L118.751 132.152C118.894 132.608 119.053 133.059 119.218 133.502C119.323 133.744 119.385 134.004 119.399 134.267C122.826 135.244 126.459 135.244 129.886 134.267C129.885 134.258 129.885 134.249 129.886 134.24C129.834 133.99 129.812 133.735 129.819 133.48C129.875 132.765 129.969 132.055 130.098 131.35C130.139 131.003 130.157 130.653 130.151 130.303V130.178C130.143 130.072 130.14 129.972 130.137 129.872ZM130.137 129.872C130.137 129.76 130.137 129.649 130.118 129.538C130.098 129.426 130.101 129.329 130.087 129.223C130.073 129.117 130.062 129.011 130.048 128.906C130.034 128.8 130.014 128.694 129.995 128.588C129.975 128.483 129.956 128.377 129.934 128.271C129.934 128.235 129.92 128.201 129.911 128.165C129.88 128.026 129.847 127.887 129.811 127.745C129.774 127.603 129.752 127.519 129.718 127.408C129.718 127.358 129.691 127.308 129.674 127.26C129.657 127.213 129.626 127.099 129.601 127.018L129.551 126.862C129.529 126.793 129.506 126.723 129.481 126.653C129.439 126.528 129.395 126.406 129.35 126.28C129.305 126.155 129.258 126.033 129.21 125.91C129.115 125.66 129.012 125.412 128.909 125.164C128.504 124.201 128.048 123.252 127.63 122.311C127.404 121.817 127.205 121.313 127.032 120.799L126.979 120.874C126.894 121.002 126.818 121.136 126.753 121.275C126.753 123.466 124.552 126.147 124.552 126.147L122.337 122.931L120.399 125.902C120.12 126.049 119.841 126.556 119.623 127.277C119.561 127.472 119.503 127.684 119.447 127.909C119.408 128.059 119.371 128.218 119.338 128.377C119.318 128.457 119.302 128.538 119.285 128.622L119.235 128.875V128.914C119.201 129.087 119.168 129.265 119.137 129.446C119.106 129.627 119.07 129.835 119.039 130.033C119.017 130.161 118.997 130.289 118.98 130.417C118.941 130.665 118.908 130.916 118.874 131.163C118.855 131.308 118.835 131.442 118.818 131.595L118.751 132.152C118.894 132.608 119.053 133.059 119.218 133.502C119.323 133.744 119.385 134.004 119.399 134.267C122.826 135.244 126.459 135.244 129.886 134.267C129.885 134.258 129.885 134.249 129.886 134.24C129.834 133.99 129.812 133.735 129.819 133.48C129.875 132.765 129.969 132.055 130.098 131.35C130.139 131.003 130.157 130.653 130.151 130.303V130.178C130.143 130.072 130.14 129.972 130.137 129.872Z" fill="white"/>
<path opacity="0.1" d="M122.376 122.745L122.189 122.72C121.907 122.682 121.627 122.626 121.351 122.553L121.248 122.525C120.567 122.333 119.821 121.988 119.653 121.381C119.604 121.186 119.609 120.98 119.67 120.788C119.764 120.457 119.891 120.136 120.05 119.83V119.814C120.071 119.771 120.094 119.729 120.12 119.688C120.35 119.239 120.699 118.861 121.128 118.594L120.793 118.647L117.955 119.106L113.557 119.814C113.557 119.814 112.775 119.658 111.711 122.581C111.711 122.617 111.686 122.65 111.675 122.689C111.418 123.405 111.147 124.298 110.868 125.415C110.675 126.189 110.499 126.949 110.337 127.686C110.289 127.909 110.242 128.129 110.197 128.346C110.701 128.938 111.243 129.496 111.82 130.017L111.912 130.103C113.042 131.123 114.291 132.004 115.632 132.728L115.685 132.756C116.528 133.209 117.406 133.597 118.31 133.914L118.547 133.998C118.598 133.483 118.654 132.912 118.721 132.327C118.721 132.269 118.721 132.21 118.743 132.152L118.81 131.595C118.827 131.453 118.846 131.317 118.866 131.164C118.899 130.916 118.933 130.665 118.972 130.417C118.989 130.289 119.008 130.161 119.031 130.033C119.061 129.836 119.095 129.638 119.128 129.446C119.162 129.254 119.193 129.087 119.226 128.914V128.875L119.276 128.622C119.293 128.538 119.31 128.458 119.329 128.377C119.363 128.218 119.399 128.059 119.438 127.909C119.494 127.684 119.553 127.472 119.614 127.277C119.838 126.556 120.097 126.05 120.391 125.902L122.329 122.932L122.41 122.806L122.446 122.751L122.376 122.745Z" fill="black"/>
<path opacity="0.1" d="M118.849 103.027C118.57 103.411 118.592 103.94 118.467 104.419C118.168 105.507 116.984 106.189 116.713 107.286C116.554 107.926 116.738 108.606 116.629 109.257C116.431 110.457 115.33 111.27 114.716 112.319C114.404 112.86 114.22 113.464 114.176 114.086C114.132 114.708 114.23 115.332 114.462 115.91C114.606 116.202 114.724 116.506 114.816 116.818C114.887 117.283 114.857 117.757 114.73 118.21C114.52 119.201 114.305 120.292 114.786 121.186C115.191 121.94 116.031 122.383 116.878 122.522C117.732 122.619 118.596 122.579 119.438 122.405C120.363 122.263 121.31 122.099 122.114 121.626L119.089 114.349C118.785 113.614 118.472 112.854 118.475 112.058C118.5 111.47 118.627 110.892 118.852 110.348C119.438 108.774 120.287 107.31 121.365 106.019C121.804 106.526 121.77 107.297 122.136 107.859C122.459 108.275 122.89 108.596 123.382 108.786C124.815 109.483 126.287 110.097 127.791 110.624C127.886 110.636 127.976 110.67 128.053 110.725C128.131 110.78 128.194 110.853 128.237 110.938C128.279 111.023 128.3 111.117 128.297 111.211C128.295 111.306 128.269 111.399 128.222 111.481L127.082 116.169C126.831 117.202 126.61 118.396 127.255 119.232C127.9 120.067 129.355 120.462 129.364 121.54C129.352 121.71 129.352 121.881 129.364 122.052C129.439 122.556 130.04 122.798 130.551 122.823C131.39 122.839 132.207 122.558 132.857 122.029C133.508 121.501 133.948 120.759 134.1 119.936C134.379 118.093 133.156 116.395 132.645 114.599C131.785 111.579 132.924 108.035 131.235 105.382C129.866 103.23 127.373 102.645 125.004 102.378C123.343 102.183 120.019 101.487 118.849 103.027Z" fill="black"/>
<path opacity="0.5" d="M118.849 102.748C118.57 103.132 118.592 103.661 118.467 104.14C118.168 105.229 116.984 105.911 116.713 107.008C116.554 107.648 116.738 108.327 116.629 108.979C116.431 110.178 115.33 110.991 114.716 112.041C114.404 112.582 114.22 113.186 114.176 113.807C114.132 114.429 114.23 115.053 114.462 115.632C114.606 115.924 114.724 116.228 114.816 116.54C114.887 117.005 114.857 117.479 114.73 117.932C114.52 118.923 114.305 120.014 114.786 120.908C115.191 121.662 116.031 122.105 116.878 122.244C117.732 122.34 118.596 122.301 119.438 122.127C120.363 121.985 121.31 121.821 122.114 121.347L119.089 114.07C118.785 113.335 118.472 112.575 118.475 111.779C118.5 111.192 118.627 110.613 118.852 110.07C119.438 108.495 120.287 107.031 121.365 105.741C121.804 106.248 121.77 107.019 122.136 107.581C122.459 107.997 122.89 108.317 123.382 108.508C124.815 109.205 126.287 109.819 127.791 110.346C127.886 110.357 127.976 110.392 128.053 110.447C128.131 110.502 128.194 110.575 128.237 110.66C128.279 110.744 128.3 110.838 128.297 110.933C128.295 111.028 128.269 111.121 128.222 111.203L127.082 115.891C126.831 116.924 126.61 118.118 127.255 118.953C127.9 119.789 129.355 120.184 129.364 121.261C129.352 121.432 129.352 121.603 129.364 121.773C129.439 122.277 130.04 122.52 130.551 122.545C131.39 122.561 132.207 122.28 132.857 121.751C133.508 121.222 133.948 120.48 134.1 119.658C134.379 117.815 133.156 116.117 132.645 114.321C131.785 111.3 132.924 107.757 131.235 105.103C129.866 102.951 127.373 102.367 125.004 102.1C123.343 101.905 120.019 101.209 118.849 102.748Z" fill="#493545"/>
</g>
<g opacity="0.5">
<path opacity="0.5" d="M117.132 177.315C117.157 178.248 116.52 179.044 116.015 179.82C115.509 180.597 115.135 181.658 115.654 182.435C115.825 182.691 116.082 182.888 116.235 183.156C116.774 184.088 115.878 185.16 115.551 186.184C115.174 187.368 115.613 188.69 116.406 189.65C117.199 190.611 118.294 191.26 119.399 191.83C121.725 193.065 124.22 193.951 126.806 194.458C128.157 194.706 129.598 194.817 130.866 194.277C131.746 193.875 132.465 193.19 132.907 192.331C133.349 191.473 133.489 190.492 133.304 189.545C132.983 188.08 131.908 186.903 131.35 185.519C131.219 185.248 131.156 184.949 131.165 184.648C131.213 184.122 131.618 183.71 131.933 183.284C132.725 182.124 133.048 180.709 132.838 179.322C132.618 177.935 132.085 176.616 131.28 175.464C130.992 174.986 130.612 174.57 130.163 174.239C129.554 173.83 128.8 173.713 128.074 173.61C125.041 173.186 121.899 172.724 118.841 172.568C117.875 172.518 117.165 172.708 116.688 173.61C115.959 174.954 117.095 175.965 117.132 177.315Z" fill="#444176"/>
<path opacity="0.5" d="M132.751 186.783L126.996 194.942L121.377 194.455C121.377 194.455 121.192 196.404 118.933 189.341C117.671 185.391 120.237 186.763 120.743 185.669C121.248 184.575 122.139 183.609 122.214 182.802C122.393 181.07 121.865 180.085 121.865 180.085L127.973 179.355C127.697 180.176 127.663 181.058 127.873 181.897C128.638 185.065 132.751 186.783 132.751 186.783Z" fill="#C77485"/>
<path opacity="0.5" d="M124.094 179.826C128.104 179.826 131.355 177.271 131.355 174.119C131.355 170.967 128.104 168.412 124.094 168.412C120.084 168.412 116.833 170.967 116.833 174.119C116.833 177.271 120.084 179.826 124.094 179.826Z" fill="#444176"/>
<path opacity="0.1" d="M127.87 181.894C127.073 182.496 126.141 182.893 125.154 183.051C124.168 183.209 123.157 183.124 122.212 182.802C122.39 181.07 121.863 180.085 121.863 180.085L127.97 179.355C127.695 180.175 127.66 181.056 127.87 181.894Z" fill="black"/>
<path opacity="0.5" d="M124.186 182.886C127.559 182.886 130.294 180.16 130.294 176.797C130.294 173.435 127.559 170.709 124.186 170.709C120.813 170.709 118.078 173.435 118.078 176.797C118.078 180.16 120.813 182.886 124.186 182.886Z" fill="#C77485"/>
<path opacity="0.1" d="M132.148 187.707L132.006 187.15L131.883 186.66L131.701 185.937L131.668 185.803L131.64 185.692C131.64 185.692 131.785 185.255 130.827 185.397L130.649 185.427C130.498 185.458 130.322 185.5 130.121 185.555L129.939 185.611L129.699 185.686C128.939 185.933 128.245 186.35 127.672 186.905C127.414 187.151 127.186 187.426 126.993 187.724C126.973 187.752 126.959 187.777 126.943 187.799C126.877 187.902 126.818 188.01 126.767 188.122C126.767 190.316 124.566 192.994 124.566 192.994L122.418 189.901L122.377 189.84L121.865 189.099L121.684 188.86L121.623 188.776L120.505 187.281L120.226 186.908L120.134 186.783L119.997 186.602L119.676 186.176L118.419 186.908L116.744 187.883L115.766 194.216V194.391L115.797 194.915L116.001 198.356V198.403L115.643 199.828L115.696 199.856C116.54 200.31 117.418 200.697 118.322 201.014L118.559 201.098C118.838 201.19 119.101 201.273 119.374 201.354C119.385 201.395 119.392 201.437 119.397 201.479C119.397 201.44 119.397 201.398 119.397 201.359C122.824 202.336 126.456 202.336 129.883 201.359L129.948 201.34C130.107 201.295 130.269 201.248 130.425 201.195L130.679 201.114C131.368 200.885 132.044 200.615 132.701 200.307L132.936 195.324L133.103 191.73V191.524L132.148 187.707Z" fill="black"/>
<path opacity="0.5" d="M130.137 196.963C130.137 196.852 130.137 196.741 130.118 196.629C130.098 196.518 130.101 196.421 130.087 196.315C130.073 196.209 130.062 196.103 130.048 195.997C130.034 195.892 130.014 195.786 129.995 195.68C129.975 195.574 129.956 195.469 129.934 195.363C129.934 195.327 129.92 195.293 129.911 195.257C129.88 195.118 129.847 194.979 129.811 194.837C129.774 194.695 129.752 194.611 129.718 194.5C129.718 194.45 129.691 194.4 129.674 194.352C129.657 194.305 129.626 194.191 129.601 194.11L129.551 193.954C129.529 193.884 129.506 193.815 129.481 193.745C129.439 193.62 129.395 193.498 129.35 193.372C129.305 193.247 129.258 193.124 129.21 193.002C129.115 192.751 129.012 192.504 128.909 192.256C128.504 191.293 128.048 190.343 127.63 189.402C127.404 188.909 127.205 188.405 127.032 187.891L126.979 187.966C126.894 188.094 126.818 188.228 126.753 188.367C126.753 190.558 124.552 193.239 124.552 193.239L122.337 190.023L120.399 192.994C120.12 193.141 119.841 193.648 119.623 194.369C119.561 194.564 119.503 194.775 119.447 195.001C119.408 195.151 119.371 195.31 119.338 195.469C119.318 195.549 119.302 195.63 119.285 195.714L119.235 195.967V196.006C119.201 196.178 119.168 196.357 119.137 196.538C119.106 196.719 119.07 196.927 119.039 197.125C119.017 197.253 118.997 197.381 118.98 197.509C118.941 197.757 118.908 198.007 118.874 198.255C118.855 198.4 118.835 198.534 118.818 198.687L118.751 199.244C118.894 199.7 119.053 200.151 119.218 200.594C119.323 200.836 119.385 201.095 119.399 201.359C122.826 202.335 126.459 202.335 129.886 201.359C129.885 201.35 129.885 201.341 129.886 201.331C129.834 201.082 129.812 200.826 129.819 200.571C129.875 199.857 129.969 199.146 130.098 198.442C130.14 198.094 130.157 197.745 130.151 197.395V197.27C130.143 197.164 130.14 197.064 130.137 196.963ZM130.137 196.963C130.137 196.852 130.137 196.741 130.118 196.629C130.098 196.518 130.101 196.421 130.087 196.315C130.073 196.209 130.062 196.103 130.048 195.997C130.034 195.892 130.014 195.786 129.995 195.68C129.975 195.574 129.956 195.469 129.934 195.363C129.934 195.327 129.92 195.293 129.911 195.257C129.88 195.118 129.847 194.979 129.811 194.837C129.774 194.695 129.752 194.611 129.718 194.5C129.718 194.45 129.691 194.4 129.674 194.352C129.657 194.305 129.626 194.191 129.601 194.11L129.551 193.954C129.529 193.884 129.506 193.815 129.481 193.745C129.439 193.62 129.395 193.498 129.35 193.372C129.305 193.247 129.258 193.124 129.21 193.002C129.115 192.751 129.012 192.504 128.909 192.256C128.504 191.293 128.048 190.343 127.63 189.402C127.404 188.909 127.205 188.405 127.032 187.891L126.979 187.966C126.894 188.094 126.818 188.228 126.753 188.367C126.753 190.558 124.552 193.239 124.552 193.239L122.337 190.023L120.399 192.994C120.12 193.141 119.841 193.648 119.623 194.369C119.561 194.564 119.503 194.775 119.447 195.001C119.408 195.151 119.371 195.31 119.338 195.469C119.318 195.549 119.302 195.63 119.285 195.714L119.235 195.967V196.006C119.201 196.178 119.168 196.357 119.137 196.538C119.106 196.719 119.07 196.927 119.039 197.125C119.017 197.253 118.997 197.381 118.98 197.509C118.941 197.757 118.908 198.007 118.874 198.255C118.855 198.4 118.835 198.534 118.818 198.687L118.751 199.244C118.894 199.7 119.053 200.151 119.218 200.594C119.323 200.836 119.385 201.095 119.399 201.359C122.826 202.335 126.459 202.335 129.886 201.359C129.885 201.35 129.885 201.341 129.886 201.331C129.834 201.082 129.812 200.826 129.819 200.571C129.875 199.857 129.969 199.146 130.098 198.442C130.14 198.094 130.157 197.745 130.151 197.395V197.27C130.143 197.164 130.14 197.064 130.137 196.963ZM130.137 196.963C130.137 196.852 130.137 196.741 130.118 196.629C130.098 196.518 130.101 196.421 130.087 196.315C130.073 196.209 130.062 196.103 130.048 195.997C130.034 195.892 130.014 195.786 129.995 195.68C129.975 195.574 129.956 195.469 129.934 195.363C129.934 195.327 129.92 195.293 129.911 195.257C129.88 195.118 129.847 194.979 129.811 194.837C129.774 194.695 129.752 194.611 129.718 194.5C129.718 194.45 129.691 194.4 129.674 194.352C129.657 194.305 129.626 194.191 129.601 194.11L129.551 193.954C129.529 193.884 129.506 193.815 129.481 193.745C129.439 193.62 129.395 193.498 129.35 193.372C129.305 193.247 129.258 193.124 129.21 193.002C129.115 192.751 129.012 192.504 128.909 192.256C128.504 191.293 128.048 190.343 127.63 189.402C127.404 188.909 127.205 188.405 127.032 187.891L126.979 187.966C126.894 188.094 126.818 188.228 126.753 188.367C126.753 190.558 124.552 193.239 124.552 193.239L122.337 190.023L120.399 192.994C120.12 193.141 119.841 193.648 119.623 194.369C119.561 194.564 119.503 194.775 119.447 195.001C119.408 195.151 119.371 195.31 119.338 195.469C119.318 195.549 119.302 195.63 119.285 195.714L119.235 195.967V196.006C119.201 196.178 119.168 196.357 119.137 196.538C119.106 196.719 119.07 196.927 119.039 197.125C119.017 197.253 118.997 197.381 118.98 197.509C118.941 197.757 118.908 198.007 118.874 198.255C118.855 198.4 118.835 198.534 118.818 198.687L118.751 199.244C118.894 199.7 119.053 200.151 119.218 200.594C119.323 200.836 119.385 201.095 119.399 201.359C122.826 202.335 126.459 202.335 129.886 201.359C129.885 201.35 129.885 201.341 129.886 201.331C129.834 201.082 129.812 200.826 129.819 200.571C129.875 199.857 129.969 199.146 130.098 198.442C130.14 198.094 130.157 197.745 130.151 197.395V197.27C130.143 197.164 130.14 197.064 130.137 196.963ZM133.098 191.738L132.101 187.771L131.93 187.092L131.883 186.905L131.64 185.936C131.64 185.928 131.64 185.92 131.64 185.911C131.646 185.869 131.639 185.825 131.62 185.786C131.584 185.714 131.492 185.639 131.277 185.619C131.195 185.613 131.113 185.613 131.031 185.619C130.788 185.643 130.548 185.688 130.313 185.753C130.199 185.783 130.076 185.817 129.945 185.858L129.705 185.934H129.682C129.039 186.144 128.442 186.475 127.923 186.908C127.58 187.193 127.279 187.525 127.029 187.894L126.976 187.969C126.891 188.097 126.816 188.231 126.75 188.37C126.75 190.561 124.549 193.241 124.549 193.241L122.335 190.026L122.209 189.845L122.186 189.814L121.865 189.344L121.622 189.021L121.558 188.937L120.413 187.415L120.05 186.922V186.905L119.924 186.735L119.684 186.418L118.846 186.905L116.752 188.122L115.786 194.388V194.455L115.814 194.912L116.02 198.4V198.598L115.705 199.853C116.548 200.307 117.426 200.694 118.33 201.011L118.567 201.095C118.846 201.187 119.109 201.27 119.383 201.351C119.393 201.392 119.4 201.434 119.405 201.476C119.405 201.437 119.405 201.395 119.405 201.356C122.832 202.333 126.465 202.333 129.892 201.356L129.956 201.337C130.115 201.292 130.277 201.245 130.433 201.192L130.688 201.112C131.377 200.882 132.052 200.612 132.709 200.304L132.941 195.327L133.109 191.772L133.098 191.738ZM119.363 201.351C119.373 201.392 119.381 201.434 119.385 201.476C119.385 201.437 119.385 201.395 119.385 201.356L119.363 201.351ZM130.137 196.963C130.137 196.852 130.137 196.741 130.118 196.629C130.098 196.518 130.101 196.421 130.087 196.315C130.073 196.209 130.062 196.103 130.048 195.997C130.034 195.892 130.014 195.786 129.995 195.68C129.975 195.574 129.956 195.469 129.934 195.363C129.934 195.327 129.92 195.293 129.911 195.257C129.88 195.118 129.847 194.979 129.811 194.837C129.774 194.695 129.752 194.611 129.718 194.5C129.718 194.45 129.691 194.4 129.674 194.352C129.657 194.305 129.626 194.191 129.601 194.11L129.551 193.954C129.529 193.884 129.506 193.815 129.481 193.745C129.439 193.62 129.395 193.498 129.35 193.372C129.305 193.247 129.258 193.124 129.21 193.002C129.115 192.751 129.012 192.504 128.909 192.256C128.504 191.293 128.048 190.343 127.63 189.402C127.404 188.909 127.205 188.405 127.032 187.891L126.979 187.966C126.894 188.094 126.818 188.228 126.753 188.367C126.753 190.558 124.552 193.239 124.552 193.239L122.337 190.023L120.399 192.994C120.12 193.141 119.841 193.648 119.623 194.369C119.561 194.564 119.503 194.775 119.447 195.001C119.408 195.151 119.371 195.31 119.338 195.469C119.318 195.549 119.302 195.63 119.285 195.714L119.235 195.967V196.006C119.201 196.178 119.168 196.357 119.137 196.538C119.106 196.719 119.07 196.927 119.039 197.125C119.017 197.253 118.997 197.381 118.98 197.509C118.941 197.757 118.908 198.007 118.874 198.255C118.855 198.4 118.835 198.534 118.818 198.687L118.751 199.244C118.894 199.7 119.053 200.151 119.218 200.594C119.323 200.836 119.385 201.095 119.399 201.359C122.826 202.335 126.459 202.335 129.886 201.359C129.885 201.35 129.885 201.341 129.886 201.331C129.834 201.082 129.812 200.826 129.819 200.571C129.875 199.857 129.969 199.146 130.098 198.442C130.14 198.094 130.157 197.745 130.151 197.395V197.27C130.143 197.164 130.14 197.064 130.137 196.963ZM130.137 196.963C130.137 196.852 130.137 196.741 130.118 196.629C130.098 196.518 130.101 196.421 130.087 196.315C130.073 196.209 130.062 196.103 130.048 195.997C130.034 195.892 130.014 195.786 129.995 195.68C129.975 195.574 129.956 195.469 129.934 195.363C129.934 195.327 129.92 195.293 129.911 195.257C129.88 195.118 129.847 194.979 129.811 194.837C129.774 194.695 129.752 194.611 129.718 194.5C129.718 194.45 129.691 194.4 129.674 194.352C129.657 194.305 129.626 194.191 129.601 194.11L129.551 193.954C129.529 193.884 129.506 193.815 129.481 193.745C129.439 193.62 129.395 193.498 129.35 193.372C129.305 193.247 129.258 193.124 129.21 193.002C129.115 192.751 129.012 192.504 128.909 192.256C128.504 191.293 128.048 190.343 127.63 189.402C127.404 188.909 127.205 188.405 127.032 187.891L126.979 187.966C126.894 188.094 126.818 188.228 126.753 188.367C126.753 190.558 124.552 193.239 124.552 193.239L122.337 190.023L120.399 192.994C120.12 193.141 119.841 193.648 119.623 194.369C119.561 194.564 119.503 194.775 119.447 195.001C119.408 195.151 119.371 195.31 119.338 195.469C119.318 195.549 119.302 195.63 119.285 195.714L119.235 195.967V196.006C119.201 196.178 119.168 196.357 119.137 196.538C119.106 196.719 119.07 196.927 119.039 197.125C119.017 197.253 118.997 197.381 118.98 197.509C118.941 197.757 118.908 198.007 118.874 198.255C118.855 198.4 118.835 198.534 118.818 198.687L118.751 199.244C118.894 199.7 119.053 200.151 119.218 200.594C119.323 200.836 119.385 201.095 119.399 201.359C122.826 202.335 126.459 202.335 129.886 201.359C129.885 201.35 129.885 201.341 129.886 201.331C129.834 201.082 129.812 200.826 129.819 200.571C129.875 199.857 129.969 199.146 130.098 198.442C130.14 198.094 130.157 197.745 130.151 197.395V197.27C130.143 197.164 130.14 197.064 130.137 196.963ZM130.137 196.963C130.137 196.852 130.137 196.741 130.118 196.629C130.098 196.518 130.101 196.421 130.087 196.315C130.073 196.209 130.062 196.103 130.048 195.997C130.034 195.892 130.014 195.786 129.995 195.68C129.975 195.574 129.956 195.469 129.934 195.363C129.934 195.327 129.92 195.293 129.911 195.257C129.88 195.118 129.847 194.979 129.811 194.837C129.774 194.695 129.752 194.611 129.718 194.5C129.718 194.45 129.691 194.4 129.674 194.352C129.657 194.305 129.626 194.191 129.601 194.11L129.551 193.954C129.529 193.884 129.506 193.815 129.481 193.745C129.439 193.62 129.395 193.498 129.35 193.372C129.305 193.247 129.258 193.124 129.21 193.002C129.115 192.751 129.012 192.504 128.909 192.256C128.504 191.293 128.048 190.343 127.63 189.402C127.404 188.909 127.205 188.405 127.032 187.891L126.979 187.966C126.894 188.094 126.818 188.228 126.753 188.367C126.753 190.558 124.552 193.239 124.552 193.239L122.337 190.023L120.399 192.994C120.12 193.141 119.841 193.648 119.623 194.369C119.561 194.564 119.503 194.775 119.447 195.001C119.408 195.151 119.371 195.31 119.338 195.469C119.318 195.549 119.302 195.63 119.285 195.714L119.235 195.967V196.006C119.201 196.178 119.168 196.357 119.137 196.538C119.106 196.719 119.07 196.927 119.039 197.125C119.017 197.253 118.997 197.381 118.98 197.509C118.941 197.757 118.908 198.007 118.874 198.255C118.855 198.4 118.835 198.534 118.818 198.687L118.751 199.244C118.894 199.7 119.053 200.151 119.218 200.594C119.323 200.836 119.385 201.095 119.399 201.359C122.826 202.335 126.459 202.335 129.886 201.359C129.885 201.35 129.885 201.341 129.886 201.331C129.834 201.082 129.812 200.826 129.819 200.571C129.875 199.857 129.969 199.146 130.098 198.442C130.14 198.094 130.157 197.745 130.151 197.395V197.27C130.143 197.164 130.14 197.064 130.137 196.963ZM130.137 196.963C130.137 196.852 130.137 196.741 130.118 196.629C130.098 196.518 130.101 196.421 130.087 196.315C130.073 196.209 130.062 196.103 130.048 195.997C130.034 195.892 130.014 195.786 129.995 195.68C129.975 195.574 129.956 195.469 129.934 195.363C129.934 195.327 129.92 195.293 129.911 195.257C129.88 195.118 129.847 194.979 129.811 194.837C129.774 194.695 129.752 194.611 129.718 194.5C129.718 194.45 129.691 194.4 129.674 194.352C129.657 194.305 129.626 194.191 129.601 194.11L129.551 193.954C129.529 193.884 129.506 193.815 129.481 193.745C129.439 193.62 129.395 193.498 129.35 193.372C129.305 193.247 129.258 193.124 129.21 193.002C129.115 192.751 129.012 192.504 128.909 192.256C128.504 191.293 128.048 190.343 127.63 189.402C127.404 188.909 127.205 188.405 127.032 187.891L126.979 187.966C126.894 188.094 126.818 188.228 126.753 188.367C126.753 190.558 124.552 193.239 124.552 193.239L122.337 190.023L120.399 192.994C120.12 193.141 119.841 193.648 119.623 194.369C119.561 194.564 119.503 194.775 119.447 195.001C119.408 195.151 119.371 195.31 119.338 195.469C119.318 195.549 119.302 195.63 119.285 195.714L119.235 195.967V196.006C119.201 196.178 119.168 196.357 119.137 196.538C119.106 196.719 119.07 196.927 119.039 197.125C119.017 197.253 118.997 197.381 118.98 197.509C118.941 197.757 118.908 198.007 118.874 198.255C118.855 198.4 118.835 198.534 118.818 198.687L118.751 199.244C118.894 199.7 119.053 200.151 119.218 200.594C119.323 200.836 119.385 201.095 119.399 201.359C122.826 202.335 126.459 202.335 129.886 201.359C129.885 201.35 129.885 201.341 129.886 201.331C129.834 201.082 129.812 200.826 129.819 200.571C129.875 199.857 129.969 199.146 130.098 198.442C130.14 198.094 130.157 197.745 130.151 197.395V197.27C130.143 197.164 130.14 197.064 130.137 196.963ZM130.137 196.963C130.137 196.852 130.137 196.741 130.118 196.629C130.098 196.518 130.101 196.421 130.087 196.315C130.073 196.209 130.062 196.103 130.048 195.997C130.034 195.892 130.014 195.786 129.995 195.68C129.975 195.574 129.956 195.469 129.934 195.363C129.934 195.327 129.92 195.293 129.911 195.257C129.88 195.118 129.847 194.979 129.811 194.837C129.774 194.695 129.752 194.611 129.718 194.5C129.718 194.45 129.691 194.4 129.674 194.352C129.657 194.305 129.626 194.191 129.601 194.11L129.551 193.954C129.529 193.884 129.506 193.815 129.481 193.745C129.439 193.62 129.395 193.498 129.35 193.372C129.305 193.247 129.258 193.124 129.21 193.002C129.115 192.751 129.012 192.504 128.909 192.256C128.504 191.293 128.048 190.343 127.63 189.402C127.404 188.909 127.205 188.405 127.032 187.891L126.979 187.966C126.894 188.094 126.818 188.228 126.753 188.367C126.753 190.558 124.552 193.239 124.552 193.239L122.337 190.023L120.399 192.994C120.12 193.141 119.841 193.648 119.623 194.369C119.561 194.564 119.503 194.775 119.447 195.001C119.408 195.151 119.371 195.31 119.338 195.469C119.318 195.549 119.302 195.63 119.285 195.714L119.235 195.967V196.006C119.201 196.178 119.168 196.357 119.137 196.538C119.106 196.719 119.07 196.927 119.039 197.125C119.017 197.253 118.997 197.381 118.98 197.509C118.941 197.757 118.908 198.007 118.874 198.255C118.855 198.4 118.835 198.534 118.818 198.687L118.751 199.244C118.894 199.7 119.053 200.151 119.218 200.594C119.323 200.836 119.385 201.095 119.399 201.359C122.826 202.335 126.459 202.335 129.886 201.359C129.885 201.35 129.885 201.341 129.886 201.331C129.834 201.082 129.812 200.826 129.819 200.571C129.875 199.857 129.969 199.146 130.098 198.442C130.14 198.094 130.157 197.745 130.151 197.395V197.27C130.143 197.164 130.14 197.064 130.137 196.963ZM130.137 196.963C130.137 196.852 130.137 196.741 130.118 196.629C130.098 196.518 130.101 196.421 130.087 196.315C130.073 196.209 130.062 196.103 130.048 195.997C130.034 195.892 130.014 195.786 129.995 195.68C129.975 195.574 129.956 195.469 129.934 195.363C129.934 195.327 129.92 195.293 129.911 195.257C129.88 195.118 129.847 194.979 129.811 194.837C129.774 194.695 129.752 194.611 129.718 194.5C129.718 194.45 129.691 194.4 129.674 194.352C129.657 194.305 129.626 194.191 129.601 194.11L129.551 193.954C129.529 193.884 129.506 193.815 129.481 193.745C129.439 193.62 129.395 193.498 129.35 193.372C129.305 193.247 129.258 193.124 129.21 193.002C129.115 192.751 129.012 192.504 128.909 192.256C128.504 191.293 128.048 190.343 127.63 189.402C127.404 188.909 127.205 188.405 127.032 187.891L126.979 187.966C126.894 188.094 126.818 188.228 126.753 188.367C126.753 190.558 124.552 193.239 124.552 193.239L122.337 190.023L120.399 192.994C120.12 193.141 119.841 193.648 119.623 194.369C119.561 194.564 119.503 194.775 119.447 195.001C119.408 195.151 119.371 195.31 119.338 195.469C119.318 195.549 119.302 195.63 119.285 195.714L119.235 195.967V196.006C119.201 196.178 119.168 196.357 119.137 196.538C119.106 196.719 119.07 196.927 119.039 197.125C119.017 197.253 118.997 197.381 118.98 197.509C118.941 197.757 118.908 198.007 118.874 198.255C118.855 198.4 118.835 198.534 118.818 198.687L118.751 199.244C118.894 199.7 119.053 200.151 119.218 200.594C119.323 200.836 119.385 201.095 119.399 201.359C122.826 202.335 126.459 202.335 129.886 201.359C129.885 201.35 129.885 201.341 129.886 201.331C129.834 201.082 129.812 200.826 129.819 200.571C129.875 199.857 129.969 199.146 130.098 198.442C130.14 198.094 130.157 197.745 130.151 197.395V197.27C130.143 197.164 130.14 197.064 130.137 196.963ZM130.137 196.963C130.137 196.852 130.137 196.741 130.118 196.629C130.098 196.518 130.101 196.421 130.087 196.315C130.073 196.209 130.062 196.103 130.048 195.997C130.034 195.892 130.014 195.786 129.995 195.68C129.975 195.574 129.956 195.469 129.934 195.363C129.934 195.327 129.92 195.293 129.911 195.257C129.88 195.118 129.847 194.979 129.811 194.837C129.774 194.695 129.752 194.611 129.718 194.5C129.718 194.45 129.691 194.4 129.674 194.352C129.657 194.305 129.626 194.191 129.601 194.11L129.551 193.954C129.529 193.884 129.506 193.815 129.481 193.745C129.439 193.62 129.395 193.498 129.35 193.372C129.305 193.247 129.258 193.124 129.21 193.002C129.115 192.751 129.012 192.504 128.909 192.256C128.504 191.293 128.048 190.343 127.63 189.402C127.404 188.909 127.205 188.405 127.032 187.891L126.979 187.966C126.894 188.094 126.818 188.228 126.753 188.367C126.753 190.558 124.552 193.239 124.552 193.239L122.337 190.023L120.399 192.994C120.12 193.141 119.841 193.648 119.623 194.369C119.561 194.564 119.503 194.775 119.447 195.001C119.408 195.151 119.371 195.31 119.338 195.469C119.318 195.549 119.302 195.63 119.285 195.714L119.235 195.967V196.006C119.201 196.178 119.168 196.357 119.137 196.538C119.106 196.719 119.07 196.927 119.039 197.125C119.017 197.253 118.997 197.381 118.98 197.509C118.941 197.757 118.908 198.007 118.874 198.255C118.855 198.4 118.835 198.534 118.818 198.687L118.751 199.244C118.894 199.7 119.053 200.151 119.218 200.594C119.323 200.836 119.385 201.095 119.399 201.359C122.826 202.335 126.459 202.335 129.886 201.359C129.885 201.35 129.885 201.341 129.886 201.331C129.834 201.082 129.812 200.826 129.819 200.571C129.875 199.857 129.969 199.146 130.098 198.442C130.14 198.094 130.157 197.745 130.151 197.395V197.27C130.143 197.164 130.14 197.064 130.137 196.963ZM130.137 196.963C130.137 196.852 130.137 196.741 130.118 196.629C130.098 196.518 130.101 196.421 130.087 196.315C130.073 196.209 130.062 196.103 130.048 195.997C130.034 195.892 130.014 195.786 129.995 195.68C129.975 195.574 129.956 195.469 129.934 195.363C129.934 195.327 129.92 195.293 129.911 195.257C129.88 195.118 129.847 194.979 129.811 194.837C129.774 194.695 129.752 194.611 129.718 194.5C129.718 194.45 129.691 194.4 129.674 194.352C129.657 194.305 129.626 194.191 129.601 194.11L129.551 193.954C129.529 193.884 129.506 193.815 129.481 193.745C129.439 193.62 129.395 193.498 129.35 193.372C129.305 193.247 129.258 193.124 129.21 193.002C129.115 192.751 129.012 192.504 128.909 192.256C128.504 191.293 128.048 190.343 127.63 189.402C127.404 188.909 127.205 188.405 127.032 187.891L126.979 187.966C126.894 188.094 126.818 188.228 126.753 188.367C126.753 190.558 124.552 193.239 124.552 193.239L122.337 190.023L120.399 192.994C120.12 193.141 119.841 193.648 119.623 194.369C119.561 194.564 119.503 194.775 119.447 195.001C119.408 195.151 119.371 195.31 119.338 195.469C119.318 195.549 119.302 195.63 119.285 195.714L119.235 195.967V196.006C119.201 196.178 119.168 196.357 119.137 196.538C119.106 196.719 119.07 196.927 119.039 197.125C119.017 197.253 118.997 197.381 118.98 197.509C118.941 197.757 118.908 198.007 118.874 198.255C118.855 198.4 118.835 198.534 118.818 198.687L118.751 199.244C118.894 199.7 119.053 200.151 119.218 200.594C119.323 200.836 119.385 201.095 119.399 201.359C122.826 202.335 126.459 202.335 129.886 201.359C129.885 201.35 129.885 201.341 129.886 201.331C129.834 201.082 129.812 200.826 129.819 200.571C129.875 199.857 129.969 199.146 130.098 198.442C130.14 198.094 130.157 197.745 130.151 197.395V197.27C130.143 197.164 130.14 197.064 130.137 196.963Z" fill="#444176"/>
<path opacity="0.1" d="M122.377 189.837L122.19 189.812C121.907 189.774 121.628 189.718 121.352 189.645L121.249 189.617C120.567 189.425 119.822 189.08 119.654 188.473C119.604 188.277 119.61 188.072 119.671 187.88C119.765 187.549 119.892 187.228 120.051 186.922V186.905C120.072 186.862 120.095 186.821 120.121 186.78C120.351 186.331 120.699 185.953 121.129 185.686L120.794 185.739L117.956 186.198L113.558 186.905C113.558 186.905 112.776 186.749 111.712 189.673C111.712 189.709 111.687 189.742 111.675 189.781C111.418 190.497 111.148 191.39 110.868 192.507C110.676 193.281 110.5 194.041 110.338 194.778C110.29 195.001 110.243 195.221 110.198 195.438C110.702 196.03 111.244 196.588 111.821 197.108L111.913 197.195C113.043 198.215 114.292 199.096 115.633 199.82L115.686 199.848C116.529 200.301 117.407 200.688 118.311 201.006L118.548 201.089C118.599 200.574 118.654 200.004 118.721 199.419C118.721 199.361 118.721 199.302 118.744 199.244L118.811 198.687C118.828 198.545 118.847 198.408 118.867 198.255C118.9 198.008 118.934 197.757 118.973 197.509C118.989 197.381 119.009 197.253 119.031 197.125C119.062 196.927 119.096 196.73 119.129 196.538C119.163 196.346 119.193 196.179 119.227 196.006V195.967L119.277 195.714C119.294 195.63 119.311 195.549 119.33 195.469C119.364 195.31 119.4 195.151 119.439 195.001C119.495 194.775 119.554 194.564 119.615 194.369C119.838 193.648 120.098 193.141 120.391 192.994L122.33 190.023L122.411 189.898L122.447 189.842L122.377 189.837Z" fill="black"/>
<path opacity="0.1" d="M122.843 175.016C123.714 174.868 124.591 174.551 125.457 174.737C126.183 174.888 126.789 175.369 127.454 175.703C128.095 176.025 128.797 176.21 129.515 176.246C129.776 176.28 130.042 176.229 130.271 176.099C130.618 175.859 130.668 175.369 130.609 174.952C130.442 173.766 129.699 172.747 128.934 171.822C128.628 171.428 128.276 171.071 127.884 170.762C126.881 170.024 125.555 169.899 124.312 169.954C122.893 170.018 121.452 170.291 120.22 171.001C119.383 171.48 117.461 172.989 118.129 174.08C118.83 175.222 121.745 175.202 122.843 175.016Z" fill="black"/>
<path opacity="0.5" d="M122.843 174.737C123.714 174.59 124.591 174.272 125.457 174.459C126.183 174.609 126.789 175.091 127.454 175.425C128.095 175.747 128.797 175.932 129.515 175.968C129.776 176.002 130.042 175.95 130.271 175.82C130.618 175.581 130.668 175.091 130.609 174.673C130.442 173.487 129.699 172.468 128.934 171.544C128.628 171.149 128.276 170.793 127.884 170.483C126.881 169.746 125.555 169.62 124.312 169.676C122.893 169.74 121.452 170.013 120.22 170.723C119.383 171.202 117.461 172.711 118.129 173.802C118.83 174.943 121.745 174.924 122.843 174.737Z" fill="#444176"/>
</g>
<path d="M199.534 161.104H199.576C199.637 162.97 199.902 164.657 200.414 165.124C201.631 166.238 206.68 164.011 206.334 162.663C206.264 162.385 206.147 161.928 205.999 161.352C207.362 161.182 208.526 160.795 208.99 159.999L209.867 162.694L209.928 162.886H209.945H209.995C210.573 168.348 211.883 179.69 212.93 181.21C214.327 183.222 215.933 191.944 215.933 191.944L218.935 209.836C218.935 209.836 220.091 220.137 220.784 221.25C220.985 221.463 221.253 221.601 221.543 221.643C221.138 222.851 220.557 224.263 219.868 225.051C218.471 226.615 216.634 229.747 215.017 229.524C213.4 229.302 212.939 232.656 215.941 233.102C217.603 233.349 220.253 233.049 222.289 232.731C222.289 233.628 222.914 234.658 224.487 234.892C227.489 235.34 233.725 233.998 233.725 233.998C233.725 233.998 239.031 231.771 239.269 230.195C239.436 229.054 238.623 224.471 238.171 222.069C239.009 220.73 238.115 209.174 238.115 209.174L236.498 187.034C236.498 187.034 237.423 174.734 236.498 172.496C235.92 171.104 235.705 164.701 235.624 160.122L236.741 160.194C236.805 160.118 236.863 160.037 236.914 159.952L237.194 159.971C237.194 159.971 238.59 158.407 237.425 155.946C236.568 154.117 236.73 145.86 236.867 141.748L237.032 139.799C237.093 139.74 237.14 139.668 237.168 139.588C239.335 139.296 241.44 138.661 243.405 137.706C243.997 137.46 244.549 137.126 245.041 136.715C246.197 135.601 245.502 128.886 243.192 118.822C240.883 108.759 238.805 109.652 238.805 109.652C238.805 109.652 233.261 109.204 230.72 105.85C228.179 102.495 226.472 102.539 226.472 102.539C226.408 102.1 226.363 101.685 226.333 101.298C226.333 101.153 226.31 101.019 226.302 100.875C227.166 100.074 227.825 99.0781 228.223 97.9711C228.743 97.6927 229.382 97.6008 229.879 97.2501C230.006 97.1583 230.122 97.0517 230.223 96.9327C230.721 96.4745 231.037 95.853 231.114 95.1816C231.193 94.4485 231.158 93.7076 231.011 92.9851C230.835 91.9161 230.575 90.822 229.949 89.9813C229.324 89.1406 228.388 88.6339 227.486 88.1634C225.043 86.8847 222.594 85.6189 220.138 84.3662C219.659 84.0739 219.123 83.8843 218.566 83.8094C217.583 83.7537 216.701 84.4246 215.908 85.0622C215.591 85.3104 215.288 85.5752 215 85.8556C214.755 86.0721 214.531 86.3117 214.332 86.571C213.405 87.8099 213.011 90.1428 213.419 91.6906C213.548 92.1806 213.824 92.3226 214.165 92.317C213.659 93.3188 213.396 94.4248 213.397 95.5463C213.402 96.7742 213.718 97.9809 214.313 99.0555C214.909 100.13 215.767 101.038 216.807 101.696C216.807 101.852 216.807 102.005 216.821 102.153C216.832 102.724 216.814 103.295 216.765 103.865C216.765 103.865 210.621 107.175 209.931 108.739C209.241 110.304 206.697 111.423 206.697 111.423C206.697 111.423 201.846 113.884 201.846 122.606L199.305 134.905L198.844 158.387C198.844 158.387 199.162 158.109 199.682 157.714C199.665 157.869 199.651 158.031 199.637 158.195C199.568 159.093 199.545 159.993 199.567 160.893L199.534 161.104ZM230.561 221.88C230.466 222.239 230.326 222.715 230.15 223.272C230.072 222.809 229.994 222.353 229.916 221.919C230.117 221.899 230.332 221.888 230.561 221.88Z" fill="url(#paint2_linear)"/>
<path d="M222.171 218.995C222.171 218.995 221.281 222.988 219.937 224.538C218.594 226.089 216.835 229.196 215.282 228.973C213.729 228.75 213.279 232.077 216.173 232.52C219.066 232.962 225.056 231.634 225.056 231.634C225.056 231.634 230.173 229.407 230.393 227.865C230.614 226.323 229.058 218.33 229.058 218.33L222.171 218.995Z" fill="#53526B"/>
<path opacity="0.05" d="M222.171 218.995C222.171 218.995 221.281 222.988 219.937 224.538C218.594 226.089 216.835 229.196 215.282 228.973C213.729 228.75 213.279 232.077 216.173 232.52C219.066 232.962 225.056 231.634 225.056 231.634C225.056 231.634 230.173 229.407 230.393 227.865C230.614 226.323 229.058 218.33 229.058 218.33L222.171 218.995Z" fill="black"/>
<path d="M230.402 220.769C230.402 220.769 229.511 224.761 228.167 226.311C226.824 227.862 225.056 230.969 223.506 230.746C221.956 230.523 221.504 233.85 224.397 234.293C227.29 234.736 233.295 233.405 233.295 233.405C233.295 233.405 238.411 231.178 238.632 229.635C238.852 228.093 237.297 220.101 237.297 220.101L230.402 220.769Z" fill="#53526B"/>
<path d="M210.16 160.021C210.16 160.021 211.939 179.088 213.274 181.084C214.609 183.08 216.164 191.727 216.164 191.727L219.055 209.463C219.055 209.463 220.172 219.663 220.834 220.771C221.496 221.879 229.751 221.403 229.751 221.403L224.618 162.68L210.16 160.021Z" fill="#5F5D7E"/>
<path opacity="0.05" d="M210.16 160.021C210.16 160.021 211.939 179.088 213.274 181.084C214.609 183.08 216.164 191.727 216.164 191.727L219.055 209.463C219.055 209.463 220.172 219.663 220.834 220.771C221.496 221.879 229.751 221.403 229.751 221.403L224.618 162.68L210.16 160.021Z" fill="black"/>
<path d="M206.602 150.926L207.183 152.766L210.325 162.708L210.386 162.897H210.403C210.825 162.992 219.728 165.032 221.649 165.659C221.753 165.691 221.855 165.729 221.954 165.773C222.845 166.215 223.956 182.178 223.956 182.178C223.956 182.178 224.623 197.256 225.073 198.364C225.523 199.472 227.307 222.305 228.41 221.643C229.514 220.98 237.529 221.643 237.529 221.643C238.419 220.755 237.529 208.784 237.529 208.784L235.948 186.839C235.948 186.839 236.839 174.645 235.948 172.426C235.057 170.208 235.057 155.355 235.057 155.355L216.851 152.519L215.092 152.24L206.602 150.926Z" fill="#5F5D7E"/>
<path opacity="0.02" d="M207.183 152.769L210.325 162.711L210.4 162.906C210.822 163 219.725 165.041 221.646 165.667H221.839L216.865 152.522L216.723 152.143L215.106 152.246L207.183 152.769Z" fill="black"/>
<path opacity="0.1" d="M227.955 106.587C227.955 106.587 219.725 115.456 214.609 108.138L209.716 111.464L210.607 116.564L207.714 155.141C207.714 155.141 215.276 154.918 220.613 156.692C222.1 157.217 223.706 157.308 225.242 156.955C226.779 156.601 228.182 155.817 229.287 154.695L228.408 120.776L230.41 110.356L227.955 106.587Z" fill="black"/>
<path d="M227.955 105.922C227.955 105.922 219.725 114.791 214.609 107.473L209.716 110.799L210.607 115.899L207.714 154.476C207.714 154.476 215.276 154.253 220.613 156.026C222.1 156.552 223.706 156.643 225.242 156.29C226.779 155.936 228.182 155.152 229.287 154.03L228.408 120.111L230.41 109.691L227.955 105.922Z" fill="#53526B"/>
<path d="M211.526 145.42V146.817H211.079V145.888H209.446V146.817H208.996V145.423L211.526 145.42Z" fill="#E82127"/>
<path d="M211.126 144.969H209.4C209.287 144.942 209.184 144.885 209.101 144.803C209.018 144.722 208.96 144.619 208.931 144.507H211.593C211.564 144.619 211.505 144.721 211.422 144.803C211.34 144.884 211.236 144.942 211.123 144.969" fill="#E82127"/>
<path d="M226.732 144.523C226.702 144.635 226.644 144.736 226.562 144.817C226.48 144.897 226.377 144.955 226.265 144.983H225.539L225.503 144.997V146.823H225.056V144.997L225.014 144.983H224.288C224.177 144.954 224.075 144.896 223.993 144.816C223.911 144.735 223.852 144.634 223.822 144.523H226.732Z" fill="#E82127"/>
<path d="M210.827 151.817C210.827 151.817 210.827 157.582 209.492 160.021C208.158 162.46 200.374 161.135 200.374 161.135L201.93 152.93L210.827 151.817Z" fill="#D6DBE6"/>
<path d="M201.221 165.124C202.393 166.238 207.256 164.011 206.92 162.685C206.686 161.747 205.865 158.39 205.398 156.486L205.074 155.147C205.074 155.147 202.226 154.259 201.221 155.147C200.855 155.47 200.598 156.742 200.478 158.279C200.271 160.948 200.48 164.417 201.221 165.124Z" fill="#FDC2CC"/>
<path d="M211.931 109.911L219.714 115.897C219.714 115.897 231.279 115.231 228.388 109.688C227.13 107.251 226.37 104.588 226.154 101.855C226.06 100.846 226.06 99.8313 226.154 98.8229C226.154 98.8229 215.477 89.0793 216.812 100.154C216.918 101.004 216.979 101.859 216.997 102.715C217.156 111.028 211.931 109.911 211.931 109.911Z" fill="#FDC2CC"/>
<path opacity="0.1" d="M216.835 100.157C216.94 101.007 217.001 101.861 217.019 102.718C218.217 103.509 219.623 103.929 221.06 103.926C223.051 103.926 224.517 101.994 225.841 100.711C225.693 98.8704 226.173 98.8259 226.173 98.8259C226.173 98.8259 215.5 89.0711 216.835 100.157Z" fill="black"/>
<path d="M221.06 103.483C225.113 103.483 228.399 100.208 228.399 96.1672C228.399 92.1266 225.113 88.8511 221.06 88.8511C217.007 88.8511 213.721 92.1266 213.721 96.1672C213.721 100.208 217.007 103.483 221.06 103.483Z" fill="#FDC2CC"/>
<path opacity="0.1" d="M226.285 103.149C226.285 103.149 227.508 103.26 229.955 106.584C232.401 109.908 237.738 110.354 237.738 110.354C237.738 110.354 239.74 109.466 241.963 119.443C244.186 129.421 244.854 136.071 243.742 137.179C242.631 138.287 238.182 139.843 235.948 139.843C235.948 139.843 235.28 153.81 236.392 156.249C237.503 158.688 236.169 160.241 236.169 160.241L226.394 159.576C226.394 159.576 223.057 155.364 222.389 148.048C221.722 140.732 219.499 119.889 220.61 117.45C221.722 115.011 226.615 108.803 226.394 108.138C226.173 107.472 226.285 103.149 226.285 103.149Z" fill="black"/>
<path d="M226.31 103.082C226.31 103.082 227.955 103.038 230.402 106.364C232.848 109.691 238.182 110.134 238.182 110.134C238.182 110.134 240.184 109.246 242.407 119.223C244.63 129.201 245.298 135.851 244.186 136.959C243.075 138.067 238.626 139.621 236.403 139.621C236.403 139.621 235.736 153.588 236.847 156.026C237.959 158.465 236.624 160.018 236.624 160.018L226.849 159.353C226.849 159.353 223.512 155.141 222.845 147.825C222.177 140.509 219.948 119.669 221.06 117.241C222.171 114.813 227.064 108.594 226.844 107.929C226.623 107.263 226.31 103.082 226.31 103.082Z" fill="#D6DBE6"/>
<path opacity="0.1" d="M200.48 158.276C201.544 157.466 203.552 156.205 205.401 156.483L205.077 155.144C205.077 155.144 202.229 154.256 201.223 155.144C200.852 155.467 200.598 156.737 200.48 158.276Z" fill="black"/>
<path opacity="0.1" d="M216.957 104.48C216.957 104.48 211.285 108.138 210.618 109.691C209.95 111.245 207.504 112.353 207.504 112.353C207.504 112.353 202.835 114.792 202.835 123.438L200.388 135.632L211.509 151.152C211.509 151.152 212.844 135.632 213.511 131.862C214.179 128.093 215.067 121.005 215.067 121.005C215.067 121.005 218.404 116.793 217.957 115.685C217.51 114.577 216.957 104.48 216.957 104.48Z" fill="black"/>
<path d="M216.958 104.413C216.958 104.413 211.043 107.695 210.378 109.246C209.713 110.797 207.264 111.907 207.264 111.907C207.264 111.907 202.595 114.346 202.595 122.993L200.148 135.186L199.704 158.465C199.704 158.465 203.709 154.696 206.599 156.469C209.49 158.243 211.269 150.704 211.269 150.704C211.269 150.704 212.604 135.184 213.271 131.414C213.939 127.645 214.827 120.557 214.827 120.557C214.827 120.557 218.164 116.345 217.717 115.237C217.27 114.129 216.958 104.413 216.958 104.413Z" fill="#D6DBE6"/>
<path opacity="0.1" d="M214.617 87.267C214.994 86.7895 215.429 86.3611 215.913 85.992C216.678 85.3572 217.524 84.6947 218.474 84.7504C219.011 84.8216 219.527 85.0057 219.987 85.2904C222.352 86.532 224.71 87.7867 227.061 89.0543C227.93 89.522 228.826 90.0175 229.432 90.8582C230.038 91.699 230.284 92.7791 230.455 93.837C230.597 94.5536 230.631 95.2874 230.555 96.014C230.486 96.7263 230.139 97.3831 229.589 97.843C228.955 98.3024 228.086 98.3052 227.556 98.9065C227.249 99.2545 227.114 99.7416 226.897 100.165C226.679 100.588 226.302 101 225.872 100.925C225.442 100.85 225.182 100.396 225.12 99.9365C225.093 99.471 225.12 99.0038 225.201 98.5446C225.285 97.7094 225.179 96.8241 224.693 96.2033C224.358 95.7802 223.878 95.524 223.554 95.0897C222.777 94.043 223.132 92.3059 222.28 91.3231C222.033 91.0663 221.722 90.8794 221.378 90.7816C221.035 90.6838 220.671 90.6785 220.325 90.7664C219.636 90.9111 219.004 91.2842 218.37 91.6015C217.514 92.0322 216.617 92.3772 215.692 92.6316C214.916 92.8431 214.017 93.3498 213.751 92.3198C213.346 90.8081 213.723 88.4947 214.617 87.267Z" fill="black"/>
<path d="M214.841 87.0468C215.217 86.5693 215.653 86.1409 216.137 85.7718C216.902 85.137 217.748 84.4745 218.697 84.5301C219.235 84.6014 219.751 84.7855 220.211 85.0702C222.574 86.3118 224.537 85.137 227.285 88.834C227.871 89.6247 229.05 89.7973 229.656 90.638C230.262 91.4788 230.508 92.5589 230.678 93.6168C230.821 94.3334 230.855 95.0672 230.779 95.7938C230.709 96.5061 230.362 97.1629 229.812 97.6228C229.178 98.0822 228.31 98.0849 227.779 98.6863C227.472 99.0343 227.338 99.5214 227.12 99.9446C226.902 100.368 226.525 100.78 226.095 100.705C225.665 100.629 225.406 100.176 225.344 99.7163C225.317 99.2508 225.344 98.7836 225.425 98.3244C225.509 97.4892 225.403 96.6039 224.917 95.9831C224.582 95.5599 224.101 95.3038 223.777 94.8695C223.001 93.8228 223.356 92.0856 222.504 91.1029C222.257 90.846 221.945 90.6592 221.602 90.5614C221.258 90.4636 220.895 90.4583 220.549 90.5461C219.859 90.6909 219.228 91.0639 218.594 91.3813C217.738 91.812 216.841 92.157 215.916 92.4114C215.14 92.6229 214.24 93.1296 213.975 92.0996C213.567 90.5879 213.947 88.2717 214.841 87.0468Z" fill="#865A61"/>
<path opacity="0.1" d="M234.887 120.885C234.887 120.885 237.852 128.424 235.627 131.528L230.734 130.415C230.734 130.415 235.183 131.745 234.515 129.084C233.848 126.422 234.887 120.885 234.887 120.885Z" fill="black"/>
<path opacity="0.1" d="M236.507 139.512C236.507 139.512 230.055 139.955 228.276 138.624C230.619 140.407 233.385 141.553 236.305 141.951L236.507 139.512Z" fill="black"/>
<path opacity="0.1" d="M208.716 125.314C208.716 125.314 205.379 135.515 205.602 137.065C205.826 138.616 206.27 155.69 206.27 155.69L206.937 155.467L206.714 136.843L208.716 125.314Z" fill="black"/>
<path d="M237.291 137.781L161.05 76.5351C160.606 76.0929 160.079 75.7424 159.499 75.5035C158.92 75.2647 158.298 75.1422 157.671 75.1431H154.431C160.905 66.8732 163.971 56.4532 163.003 46.0078C162.036 35.5624 157.108 25.8781 149.224 18.9297C141.341 11.9812 131.096 8.29177 120.578 8.61366C110.059 8.93555 100.061 13.2445 92.6196 20.662C85.1787 28.0794 80.8561 38.0467 80.5332 48.5316C80.2102 59.0166 83.9114 69.2294 90.8819 77.0879C97.8523 84.9464 107.567 89.8587 118.046 90.8231C128.524 91.7876 138.977 88.7316 147.273 82.2783V85.5048C147.272 86.1302 147.395 86.7497 147.635 87.3277C147.875 87.9057 148.226 88.431 148.67 88.8733L224.911 150.119C225.352 150.563 225.877 150.915 226.456 151.155C227.035 151.395 227.655 151.519 228.282 151.519C228.909 151.519 229.529 151.395 230.108 151.155C230.686 150.915 231.211 150.563 231.653 150.119L237.272 144.523C238.168 143.63 238.674 142.42 238.677 141.156C238.681 139.893 238.183 138.679 237.291 137.781ZM121.821 75.1431C116.786 75.1431 111.865 73.655 107.68 70.8671C103.494 68.0791 100.232 64.1165 98.3052 59.4803C96.3788 54.8441 95.8747 49.7425 96.8568 44.8208C97.8389 39.899 100.263 35.378 103.823 31.8296C107.382 28.2812 111.918 25.8648 116.855 24.8858C121.792 23.9068 126.91 24.4092 131.561 26.3296C136.212 28.25 140.187 31.502 142.984 35.6745C145.781 39.847 147.273 44.7525 147.273 49.7707C147.276 53.1036 146.619 56.4044 145.341 59.4842C144.063 62.564 142.188 65.3624 139.825 67.7194C137.461 70.0764 134.654 71.9457 131.564 73.2205C128.475 74.4953 125.164 75.1505 121.821 75.1487V75.1431Z" fill="url(#paint3_linear)"/>
<path d="M237.85 137.224L161.608 75.9779C161.165 75.5358 160.638 75.1852 160.058 74.9464C159.478 74.7075 158.857 74.5851 158.229 74.586H154.99C161.464 66.3161 164.529 55.8961 163.562 45.4507C162.594 35.0053 157.666 25.321 149.783 18.3725C141.9 11.4241 131.654 7.73464 121.136 8.05653C110.618 8.37842 100.619 12.6874 93.1782 20.1048C85.7373 27.5223 81.4147 37.4896 81.0917 47.9745C80.7688 58.4594 84.47 68.6723 91.4404 76.5308C98.4109 84.3893 108.126 89.3015 118.604 90.266C129.083 91.2304 139.536 88.1745 147.832 81.7211V84.9477C147.831 85.5731 147.954 86.1926 148.194 86.7706C148.433 87.3486 148.785 87.8738 149.228 88.3162L225.47 149.562C225.911 150.006 226.436 150.358 227.015 150.598C227.593 150.838 228.214 150.962 228.84 150.962C229.467 150.962 230.088 150.838 230.666 150.598C231.245 150.358 231.77 150.006 232.211 149.562L237.83 143.966C238.727 143.073 239.232 141.863 239.236 140.599C239.239 139.336 238.741 138.122 237.85 137.224ZM122.379 74.586C117.345 74.586 112.424 73.0979 108.238 70.31C104.053 67.522 100.79 63.5594 98.8638 58.9232C96.9374 54.287 96.4333 49.1854 97.4154 44.2636C98.3975 39.3419 100.822 34.8209 104.381 31.2725C107.941 27.7241 112.476 25.3076 117.414 24.3286C122.351 23.3496 127.469 23.8521 132.12 25.7725C136.77 27.6928 140.746 30.9449 143.542 35.1174C146.339 39.2898 147.832 44.1954 147.832 49.2135C147.835 52.5465 147.178 55.8472 145.9 58.927C144.622 62.0068 142.747 64.8053 140.383 67.1623C138.019 69.5193 135.212 71.3886 132.123 72.6634C129.034 73.9382 125.723 74.5934 122.379 74.5916V74.586Z" fill="#445743"/>
<path d="M232.181 131.639C232.181 131.639 221.052 118.917 222.615 127.647C223.733 133.855 227.952 137.182 229.955 137.848C231.957 138.513 232.181 131.639 232.181 131.639Z" fill="#FDC2CC"/>
<path d="M234.851 119.889C234.851 119.889 235.074 128.093 236.185 129.201C237.297 130.309 235.518 131.639 235.518 131.639L231.069 130.526C231.069 130.526 232.186 137.842 227.511 136.957C227.511 136.957 230.625 139.838 233.739 140.284C236.853 140.729 236.629 139.618 236.629 139.618L241.299 134.075L234.851 119.889Z" fill="#D6DBE6"/>
<path d="M236.082 139.738L240.595 138.75L239.992 136.676L237.199 135.562L233.569 137.232L236.082 139.738Z" fill="#D6DBE6"/>
<path d="M125.164 59.7284L131.171 55.1099C131.171 55.1099 127.146 55.9701 127.261 49.5588C127.26 49.5375 127.26 49.5161 127.261 49.4948C127.261 48.9157 127.317 48.281 127.401 47.5822C128.431 39.0273 120.193 46.555 120.193 46.555C120.263 47.3124 120.263 48.0748 120.193 48.8322C120.193 48.8517 120.193 48.874 120.193 48.8934C120.03 51.0016 119.447 53.0563 118.478 54.9373C116.241 59.2134 125.164 59.7284 125.164 59.7284Z" fill="#FDC2CC"/>
<path opacity="0.1" d="M120.961 47.6435C121.98 48.6318 122.603 50.4274 124.136 50.4274C125.245 50.4298 126.331 50.1053 127.255 49.4948C127.255 48.9157 127.311 48.281 127.395 47.5822C128.426 39.0273 120.187 46.555 120.187 46.555C120.187 46.555 121.07 46.2515 120.961 47.6435Z" fill="black"/>
<path d="M124.136 50.1489C127.264 50.1489 129.799 47.6212 129.799 44.5032C129.799 41.3851 127.264 38.8574 124.136 38.8574C121.008 38.8574 118.472 41.3851 118.472 44.5032C118.472 47.6212 121.008 50.1489 124.136 50.1489Z" fill="#FDC2CC"/>
<path opacity="0.1" d="M129.568 37.2735C129.243 36.8643 128.868 36.4977 128.451 36.1823C127.797 35.6394 127.071 35.0687 126.258 35.1188C125.799 35.1798 125.357 35.3373 124.963 35.5809C122.938 36.6444 121.259 35.6394 118.905 38.8019C118.402 39.4784 117.394 39.6371 116.875 40.347C116.355 41.0569 116.146 41.9895 115.998 42.897C115.876 43.5109 115.846 44.1397 115.911 44.7622C115.973 45.3733 116.274 45.9353 116.749 46.3268C117.291 46.7193 118.037 46.7221 118.492 47.2371C118.721 47.5726 118.908 47.9343 119.05 48.3145C119.235 48.6764 119.559 49.0188 119.927 48.9659C120.296 48.913 120.517 48.5149 120.57 48.1307C120.593 47.7331 120.569 47.3342 120.5 46.942C120.43 46.2377 120.519 45.4693 120.935 44.9376C121.215 44.5729 121.634 44.3558 121.91 43.9855C122.575 43.0919 122.273 41.5914 123.002 40.7618C123.215 40.5436 123.483 40.3856 123.777 40.3039C124.071 40.2223 124.382 40.2198 124.678 40.2969C125.265 40.4639 125.828 40.7053 126.353 41.0151C127.086 41.384 127.854 41.6796 128.646 41.8976C129.311 42.0785 130.082 42.5128 130.308 41.6192C130.662 40.3052 130.33 38.3231 129.568 37.2735Z" fill="black"/>
<path d="M129.568 36.9952C129.243 36.586 128.868 36.2193 128.451 35.9039C127.797 35.3611 127.071 34.7904 126.258 34.8405C125.799 34.9015 125.357 35.059 124.963 35.3026C122.938 36.3661 121.259 35.3611 118.905 38.5236C118.402 39.2001 117.394 39.3587 116.875 40.0686C116.355 40.7785 116.146 41.7111 115.998 42.6187C115.876 43.2326 115.846 43.8614 115.911 44.4839C115.973 45.0949 116.274 45.657 116.749 46.0485C117.291 46.441 118.037 46.4438 118.492 46.9588C118.721 47.2943 118.908 47.656 119.05 48.0362C119.235 48.3981 119.559 48.7405 119.927 48.6876C120.296 48.6347 120.517 48.2366 120.57 47.8524C120.593 47.4548 120.569 47.0559 120.5 46.6637C120.43 45.9594 120.519 45.191 120.935 44.6593C121.215 44.2946 121.634 44.0775 121.91 43.7072C122.575 42.8136 122.273 41.313 123.002 40.4834C123.215 40.2653 123.483 40.1073 123.777 40.0256C124.071 39.9439 124.382 39.9415 124.678 40.0185C125.265 40.1856 125.828 40.4269 126.353 40.7368C127.086 41.1057 127.854 41.4013 128.646 41.6193C129.311 41.8002 130.082 42.2345 130.308 41.3409C130.662 40.0269 130.33 38.0447 129.568 36.9952Z" fill="#865A61"/>
<path opacity="0.1" d="M118.472 62.6987L118.361 66.972C119.984 67.4117 121.658 67.6336 123.34 67.6318C123.619 67.6318 123.912 67.6318 124.197 67.6123C125.689 67.5483 127.167 67.3071 128.601 66.8941H128.629C128.895 66.8161 129.157 66.7354 129.417 66.6463H129.445L129.682 66.5628C130.586 66.2454 131.464 65.8582 132.307 65.4047L132.36 65.3768C132.453 65.3267 132.545 65.2766 132.64 65.2237L132.207 59.4638L132.897 55.5135L129.121 52.9495C128.909 53.2546 128.672 53.5414 128.412 53.807C128.039 54.195 127.603 54.517 127.121 54.7591C124.412 56.0898 121.329 53.974 119.796 52.6656L119.447 52.3565C119.05 51.9974 118.824 51.7524 118.824 51.7524L116.936 54.6588L118.472 62.6987Z" fill="black"/>
<path d="M118.472 62.9775L118.361 67.2508C119.984 67.6905 121.658 67.9124 123.34 67.9106C123.619 67.9106 123.912 67.9106 124.197 67.8911C125.689 67.8271 127.167 67.5859 128.601 67.1729H128.629C128.895 67.0949 129.157 67.0142 129.417 66.9251H129.445L129.682 66.8416C130.586 66.5242 131.464 66.137 132.307 65.6835L132.36 65.6557C132.453 65.6055 132.545 65.5554 132.64 65.5025L132.207 59.7427L132.897 55.7923L129.121 53.2283C128.909 53.5334 128.672 53.8203 128.412 54.0858C128.039 54.4738 127.603 54.7958 127.121 55.0379C124.412 56.3686 121.329 54.2528 119.796 52.9444L119.447 52.6354C119.05 52.2762 118.824 52.0312 118.824 52.0312L116.936 54.9376L118.472 62.9775Z" fill="#53526B"/>
<path d="M128.939 63.3198C128.939 63.3198 129.146 64.9595 129.417 66.9194H129.445L129.682 66.8359C130.586 66.5185 131.464 66.1313 132.307 65.6778L132.36 65.6499C132.452 65.5998 132.545 65.5497 132.64 65.4968C133.878 64.8041 135.034 63.9749 136.086 63.0247L136.178 62.9384C136.755 62.4177 137.297 61.8597 137.801 61.2681L137.859 61.1985C136.862 57.7492 134.787 56.6635 134.787 56.6635C134.787 56.6635 132.899 55.8061 132.383 54.609C131.866 53.4119 127.305 50.8813 127.305 50.8813V50.9008C127.305 51.1152 127.233 53.0778 127.124 55.0516C127.054 56.335 126.968 57.6239 126.867 58.4424C126.845 58.7083 126.797 58.9713 126.722 59.2275C126.367 60.071 128.939 63.3198 128.939 63.3198Z" fill="#555388"/>
</g>
<defs>
<linearGradient id="paint0_linear" x1="181.624" y1="221.209" x2="181.624" y2="10.938" gradientUnits="userSpaceOnUse">
<stop stop-color="#808080" stop-opacity="0.25"/>
<stop offset="0.54" stop-color="#808080" stop-opacity="0.12"/>
<stop offset="1" stop-color="#808080" stop-opacity="0.1"/>
</linearGradient>
<linearGradient id="paint1_linear" x1="10483.7" y1="17246.3" x2="10483.7" y2="13168.9" gradientUnits="userSpaceOnUse">
<stop stop-color="#808080" stop-opacity="0.25"/>
<stop offset="0.54" stop-color="#808080" stop-opacity="0.12"/>
<stop offset="1" stop-color="#808080" stop-opacity="0.1"/>
</linearGradient>
<linearGradient id="paint2_linear" x1="-48795.2" y1="131305" x2="-48795.2" y2="49216.3" gradientUnits="userSpaceOnUse">
<stop stop-color="#808080" stop-opacity="0.25"/>
<stop offset="0.54" stop-color="#808080" stop-opacity="0.12"/>
<stop offset="1" stop-color="#808080" stop-opacity="0.1"/>
</linearGradient>
<linearGradient id="paint3_linear" x1="75763.3" y1="81211.3" x2="75763.3" y2="7807.99" gradientUnits="userSpaceOnUse">
<stop stop-color="#808080" stop-opacity="0.25"/>
<stop offset="0.54" stop-color="#808080" stop-opacity="0.12"/>
<stop offset="1" stop-color="#808080" stop-opacity="0.1"/>
</linearGradient>
<clipPath id="clip0">
<rect width="311" height="235" fill="white" transform="translate(38)"/>
</clipPath>
</defs>
</svg>
